<?xml version="1.0" encoding="utf-8"?>
<!-- Generator: Adobe Illustrator 24.0.1, SVG Export Plug-In . SVG Version: 6.00 Build 0)  -->
<svg version="1.1" id="Capa_1" xmlns="http://www.w3.org/2000/svg" xmlns:xlink="http://www.w3.org/1999/xlink" x="0px" y="0px"
	 viewBox="0 0 523.2 298.2" style="enable-background:new 0 0 523.2 298.2;" xml:space="preserve">
<style type="text/css">
	.st0{fill:#3F3D56;}
</style>
<path class="st0" d="M507.2,12.3c-7.3-7.2-17-11.2-27.3-11.2c-10.4,0-20.2,4.1-27.5,11.4L261.6,203.2L70.8,12.4
	C63.5,5,53.7,1,43.3,1C32.9,1,23.1,5,15.8,12.4C8.4,19.8,4.4,29.5,4.4,39.9c0,10.4,4.1,20.2,11.4,27.5l218.3,218.3
	c7.4,7.4,17.1,11.4,27.5,11.4c10.4,0,20.1-4.1,27.5-11.4L507.4,67.4c7.3-7.3,11.4-17.3,11.4-27.5C518.8,29.6,514.6,19.5,507.2,12.3z
	"/>
</svg>
