<svg height="512" viewBox="0 0 64 64" width="512" xmlns="http://www.w3.org/2000/svg"><path d="m57 22v10h-27l-13-13h-14v-10a2.006 2.006 0 0 1 2-2h12l13 13h25a2 2 0 0 1 1.97 1.68 1.655 1.655 0 0 1 .03.32z" fill="#ee8700"/><path d="m49 3h-38a2.006 2.006 0 0 0 -2 2v14h8l13 13h21v-27a2.006 2.006 0 0 0 -2-2z" fill="#e6e7e8"/><path d="m51 20h2v12h-2z" fill="#cc7400"/><path d="m57 32v27a2.006 2.006 0 0 1 -2 2h-50a2.006 2.006 0 0 1 -2-2v-40h14l13 13z" fill="#ff9811"/><path d="m49.75 32-10.1 14.41-.57.82-1.75 1.3-1.33 4.47 5.08-3.77.57-.82 11.497-16.41z" fill="#ee8700"/><path d="m57 26.5v-4.5a1.655 1.655 0 0 0 -.03-.32l-.68.98-5.29 7.55-1.25 1.79h3.4z" fill="#cc7400"/><circle cx="19" cy="45" fill="#ffd422" r="8"/><path d="m45 3v10l-3-4-3 4v-10z" fill="#ff5023"/><path d="m7 7h2v12h-2z" fill="#cc7400"/><path d="m55.3 17.09-2.03 2.91-.26.36 3.28 2.3.68-.98 1.61-2.3z" fill="#e6e7e8"/><path d="m61.24 14.96a2 2 0 0 1 -.36 1.14l-2.3 3.28-3.28-2.29 2.3-3.28a2 2 0 0 1 3.64 1.15z" fill="#3d9ae2"/><path d="m53.01 20.36-2.01 2.87-6.14 8.77-8.48 12.12 3.27 2.29 10.1-14.41 1.25-1.79 5.29-7.55z" fill="#3d9ae2"/><path d="m39.65 46.41-.57.82-5.08 3.77 1.8-6.06.58-.82z" fill="#1e81ce"/><path d="m14 8h6v2h-6z"/><path d="m22 8h8v2h-8z"/><path d="m14 12h16v2h-16z"/><path d="m22 18h18v2h-18z"/><path d="m26 22h20v2h-20z"/><path d="m42 18h4v2h-4z"/><path d="m30 26h14v2h-14z"/><path d="m62.192 14.437a3 3 0 0 0 -5.412-1.2l-4.036 5.763h-.744v-14a3 3 0 0 0 -3-3h-38a3 3 0 0 0 -3 3v1h-3a3 3 0 0 0 -3 3v50a3 3 0 0 0 3 3h50a3 3 0 0 0 3-3v-37c0-.014 0-.026 0-.04l3.7-5.282a2.978 2.978 0 0 0 .492-2.241zm-22.784 30.583-1.638-1.147 15.486-22.117 1.638 1.144zm-2.741.523 1.549 1.085-2.4 1.782zm17.733-25.425 1.15-1.638 1.638 1.146-1.147 1.639zm-14.4-16.118h4v6l-1.2-1.6a1.036 1.036 0 0 0 -1.6 0l-1.2 1.6zm-29 0h27v9a1 1 0 0 0 1.8.6l2.2-2.933 2.2 2.933a1 1 0 0 0 .8.4 1.019 1.019 0 0 0 .316-.051 1 1 0 0 0 .684-.949v-9h3a1 1 0 0 1 1 1v17.919l-5.658 8.081h-13.928l-12.707-12.707a1 1 0 0 0 -.707-.293h-7v-13a1 1 0 0 1 1-1zm-6 4h3v10h-4v-9a1 1 0 0 1 1-1zm51 51a1 1 0 0 1 -1 1h-50a1 1 0 0 1 -1-1v-39h12.586l12.707 12.707a1 1 0 0 0 .707.293h12.941l-7.957 11.364a.989.989 0 0 0 -.139.289l-1.8 6.062a1 1 0 0 0 1.555 1.085l5.079-3.767a1 1 0 0 0 .224-.23l10.363-14.803h5.734zm0-28h-4v-.476l4-5.713zm4.056-15.469-1.72 2.457-1.636-1.147 1.72-2.458a1 1 0 0 1 1.8.4.992.992 0 0 1 -.164.748z"/><path d="m19 42a3.005 3.005 0 0 1 2.25 1.016l1.5-1.323a5 5 0 1 0 0 6.614l-1.5-1.323a3 3 0 1 1 -2.25-4.984z"/><path d="m19 36a9 9 0 1 0 9 9 9.011 9.011 0 0 0 -9-9zm0 16a7 7 0 1 1 7-7 7.008 7.008 0 0 1 -7 7z"/></svg>