<?xml version="1.0" encoding="utf-8"?>
<!-- Generator: Adobe Illustrator 23.0.4, SVG Export Plug-In . SVG Version: 6.00 Build 0)  -->
<svg version="1.1" id="Calque_1" xmlns="http://www.w3.org/2000/svg" xmlns:xlink="http://www.w3.org/1999/xlink" x="0px" y="0px"
	 viewBox="0 0 22.9 19.9" style="enable-background:new 0 0 22.9 19.9;" xml:space="preserve">
<style type="text/css">
	.st0{fill:#DF4949;}
</style>
<title>commande_hover</title>
<path class="st0" d="M22.6,6.9L18.7,3c-0.2-0.2-0.6-0.3-0.9-0.1l-2.3,1.2h-1.8c-0.4,0-0.8,0.2-0.8,0.7c0,0.4,0.2,0.8,0.7,0.8
	c0.1,0,0.1,0,0.2,0h1.6l1.6,2.5H5.7l1.8-2.5h1.6c0.4,0,0.8-0.2,0.8-0.7c0-0.4-0.2-0.8-0.7-0.8c-0.1,0-0.1,0-0.2,0H7.4L5,2.9
	C4.7,2.7,4.4,2.8,4.2,3L0.2,6.9C0,7.1,0,7.3,0,7.6C0.1,7.8,0.2,8,0.5,8.1l3,1.2v9.9c0,0.4,0.3,0.7,0.7,0.7h14c0.4,0,0.7-0.3,0.7-0.7
	V9.5l3.5-1.4c0.2-0.1,0.4-0.3,0.5-0.5C22.9,7.3,22.8,7.1,22.6,6.9z M4.8,4.4l1.2,0.7L4,7.9L2.1,7.1L4.8,4.4z M16.9,18.4H5.5
	c-0.3,0-0.5-0.2-0.5-0.5v-7.9c0-0.3,0.2-0.5,0.5-0.5h11.4c0.3,0,0.5,0.2,0.5,0.5v7.9C17.4,18.2,17.2,18.4,16.9,18.4L16.9,18.4z
	 M18.6,8l-1.8-2.9L18,4.4l2.7,2.7L18.6,8z"/>
<path class="st0" d="M9.7,5.8l1.4,1.6c0.1,0.2,0.4,0.2,0.6,0.1c0,0,0.1,0,0.1-0.1l1.4-1.6h-1V0.8c0-0.4-0.3-0.7-0.7-0.8c0,0,0,0,0,0
	c-0.4,0-0.8,0.3-0.8,0.8v5.1H9.7z"/>
</svg>
