<svg id="Calque_1" data-name="Calque 1" xmlns="http://www.w3.org/2000/svg" viewBox="0 0 22.86 19.92"><defs><style>.cls-1{fill:#3f3d56;}</style></defs><title>commande</title><path class="cls-1" d="M22.64,6.88,18.72,3a.74.74,0,0,0-.87-.14L15.5,4.08H13.7a.75.75,0,1,0,0,1.49h1.57l1.56,2.5H5.72l1.84-2.5H9.2a.75.75,0,1,0,0-1.49H7.36L5,2.86A.73.73,0,0,0,4.15,3L.22,6.88A.77.77,0,0,0,0,7.56a.76.76,0,0,0,.46.54l3,1.22v9.86a.74.74,0,0,0,.74.74H18.18a.74.74,0,0,0,.74-.74V9.49L22.39,8.1a.74.74,0,0,0,.46-.54A.75.75,0,0,0,22.64,6.88ZM4.81,4.44l1.25.65L4,7.91,2.08,7.14Zm12.12,14H5.5a.5.5,0,0,1-.5-.5V10.06a.5.5,0,0,1,.5-.5H16.93a.5.5,0,0,1,.5.5v7.87A.5.5,0,0,1,16.93,18.43ZM18.57,8,16.74,5.11l1.31-.67,2.73,2.7Z"/><path class="cls-1" d="M9.7,5.83l1.42,1.59a.43.43,0,0,0,.68,0l1.41-1.59h-1V.75A.74.74,0,0,0,11.46,0a.75.75,0,0,0-.75.75V5.83Z"/></svg>