<?xml version="1.0" encoding="utf-8"?>
<!-- Generator: Adobe Illustrator 24.0.1, SVG Export Plug-In . SVG Version: 6.00 Build 0)  -->
<svg version="1.1" id="Calque_1" xmlns="http://www.w3.org/2000/svg" xmlns:xlink="http://www.w3.org/1999/xlink" x="0px" y="0px"
	 viewBox="0 0 512 512" style="enable-background:new 0 0 512 512;" xml:space="preserve">
<style type="text/css">
	.st0{fill:#FFE0B2;}
	.st1{fill:#DFC49C;}
	.st2{fill:#F44335;}
	.st3{fill:#EF314C;}
	.st4{fill:#02A9F4;}
	.st5{fill:#0377BC;}
	.st6{fill:#BB193B;}
</style>
<path class="st0" d="M74.8,237.4c-7-4.6-15.2-7-23.6-7c-17.5,0-33.2,10.7-39.6,26.9c-6.4,16.2-2.3,34.8,10.4,46.8
	c12.7,12,31.5,15,47.3,7.6L74.8,237.4z"/>
<path class="st1" d="M503.5,273.1c0,23.6-19.1,42.7-42.7,42.7c-4,0-7.9-0.6-11.7-1.7c-2.2-0.6-4.4-1.3-6.4-2.3l-5.5-74.3
	c3.6-2.4,7.6-4.2,11.8-5.3c3.8-1.1,7.8-1.7,11.8-1.7C484.4,230.4,503.5,249.5,503.5,273.1z"/>
<path class="st0" d="M479.8,273.1c0,19-12.5,35.6-30.7,41c-2.2-0.6-4.4-1.3-6.4-2.3l-5.5-74.3c3.6-2.4,7.6-4.2,11.8-5.3
	C467.3,237.4,479.8,254.1,479.8,273.1z"/>
<path class="st1" d="M443.7,290.1c0,7.3-0.3,14.5-1,21.6c-1,10.8-2.8,21.4-5.3,31.9l-25.2,62.8c-33.7,57.4-91.1,97-156.2,97
	c-3.8,0-7.7-0.2-11.5-0.4h-0.6c-60.1-4.6-112.6-42.8-144.1-96.6l-25.2-62.8c-2.5-10.5-4.3-21.2-5.3-31.9c-0.7-7.1-1-14.3-1-21.6
	c-0.1-17.8,2.1-35.5,6.5-52.7c18.8-79.8,87.6-138,169.5-143.1c3.9-0.3,7.9-0.4,11.8-0.4c86.4,0,161.5,59.4,181.2,143.5
	C441.6,254.6,443.8,272.4,443.7,290.1z"/>
<path class="st0" d="M420.1,290.1c0,7.3-0.3,14.5-1,21.6c-1,10.8-2.8,21.4-5.3,31.9l-25.2,62.8c-31.6,53.8-84.1,92-144.1,96.6h-0.6
	c-60.1-4.6-112.6-42.8-144.1-96.6l-25.2-62.8c-2.5-10.5-4.3-21.2-5.3-31.9c-0.7-7.1-1-14.3-1-21.6c-0.1-17.8,2.1-35.5,6.5-52.7
	c18.8-79.8,87.6-138,169.5-143.1c81.8,5.2,150.6,63.3,169.4,143.1C418,254.6,420.2,272.4,420.1,290.1z"/>
<path class="st2" d="M322.4,457.4c-15.7,8.8-39.6,11.9-66.4,11.9s-50.7-3.2-66.4-11.9c7.2-22.5,34.1-39.3,66.4-39.3
	S315.2,434.9,322.4,457.4z"/>
<path class="st3" d="M341.3,426.7c0.2,13.1-7.2,25.1-18.9,30.7c-6-15.7-18.6-27.9-34.6-33.3c-20.5-8-43.2-8-63.7,0
	c-15.9,5.4-28.6,17.6-34.6,33.3c-11.8-5.7-19.2-17.7-18.9-30.7c0-20.7,14.9-45.5,37.6-61.2c28.4-20.8,67-20.8,95.4,0
	C326.4,381.2,341.3,406,341.3,426.7z"/>
<path class="st4" d="M111.5,397.4c-7.8,9.3-20.1,13.8-32.1,11.7s-22-10.5-26.2-21.9c-4.2-11.5-1.9-24.3,5.9-33.6
	c12.1-14.4,64.5-23.9,64.5-23.9S123.6,382.9,111.5,397.4z"/>
<path class="st5" d="M448.6,401.7c-9.4,7.8-22.2,10.1-33.7,5.8c-5.6-2-10.6-5.5-14.4-10.1c-9.6-11.6-11.7-48.3-12.1-62.3
	c-0.1-3.4-0.1-5.5-0.1-5.5s52.5,9.5,64.6,23.9C464.9,368,463,389.5,448.6,401.7z"/>
<path class="st4" d="M425,401.7c-3,2.5-6.4,4.5-10.1,5.8c-5.6-2-10.6-5.5-14.4-10.1c-9.6-11.6-11.7-48.3-12.1-62.3
	c15.5,4.2,34.1,10.6,40.8,18.4C441.3,368,439.4,389.5,425,401.7z"/>
<path class="st4" d="M31.7,110.6c-8.8-10-7.9-25.3,2-34.2c8.9-10,24.2-10.9,34.2-2c8.9,8.9,14.1,50.3,14.1,50.3
	S40.6,119.5,31.7,110.6z"/>
<path class="st5" d="M480.3,110.6c-8.9,8.9-50.3,14.1-50.3,14.1s0.2-1.6,0.6-4.2c1.6-10.8,6.3-38.9,13.5-46.1c1.2-1.1,2.4-2.1,3.8-3
	c10.1-5.5,22.6-3.4,30.4,4.9C488.2,85.3,489.1,100.6,480.3,110.6z"/>
<path class="st4" d="M456.6,110.6c-7.9,5.1-16.7,8.5-26,9.9c1.6-10.8,6.3-38.9,13.5-46.1c1.2-1.1,2.4-2.1,3.8-3
	c2.5,1.3,4.7,3,6.7,4.9C464.6,85.3,465.5,100.6,456.6,110.6z"/>
<path class="st6" d="M307.2,384c0,15.6-7.1,30.4-19.4,40.1c-20.5-8-43.2-8-63.7,0c-12.2-9.7-19.4-24.5-19.4-40.1
	c0-6.3,1.2-12.6,3.5-18.5c28.4-20.8,67-20.8,95.4,0C306,371.4,307.2,377.7,307.2,384z"/>
<path d="M437.4,352.2c-2.6,0-5.1-1.2-6.7-3.2c-1.6-2-2.2-4.7-1.6-7.3c2.4-10.1,4.1-20.4,5.1-30.7c0.7-6.8,1-13.8,1-20.8
	c0.1-17.1-2-34.1-6.2-50.6c-18.8-80.3-90.5-137.1-173-137.1S101.9,159.2,83,239.5c-4.2,16.6-6.3,33.6-6.2,50.6c0,7,0.3,14,1,20.8
	c1,10.4,2.7,20.6,5.1,30.8c1,4.5-1.8,9-6.4,10.1c-4.5,1.1-9.1-1.7-10.2-6.2c-2.6-10.9-4.4-21.9-5.5-33.1c-0.7-7.3-1.1-14.8-1.1-22.4
	c-0.1-18.5,2.2-36.9,6.8-54.8c20.8-87.9,99.2-150,189.5-150c90.3,0,168.8,62.1,189.5,150c4.5,17.9,6.8,36.3,6.7,54.8
	c0,7.6-0.4,15.1-1.1,22.4c-1.1,11.1-2.9,22.2-5.5,33.1C444.8,349.5,441.4,352.2,437.4,352.2z"/>
<path d="M256,512c-65.2,0-126.4-37.8-163.6-101.2c-1.6-2.6-1.7-5.9-0.2-8.6c1.5-2.7,4.4-4.4,7.5-4.4s5.9,1.7,7.5,4.4
	c34.1,58.1,89.8,92.8,148.9,92.8s114.8-34.7,148.9-92.8c1.5-2.7,4.4-4.4,7.5-4.4s6,1.7,7.5,4.4c1.5,2.7,1.4,6-0.2,8.6
	C382.4,474.2,321.2,512,256,512z"/>
<path d="M51.2,324.3C22.9,324.3,0,301.3,0,273.1s22.9-51.2,51.2-51.2c10,0,19.8,2.9,28.2,8.4c2.6,1.7,4,4.6,3.9,7.6
	c-0.2,3-1.9,5.8-4.6,7.2c-2.7,1.4-6,1.2-8.5-0.4c-5.6-3.7-12.2-5.6-18.9-5.6c-14,0-26.5,8.6-31.7,21.6c-5.1,13-1.9,27.8,8.3,37.4
	c10.2,9.6,25.2,12,37.8,6.1c2.8-1.4,6.1-1.2,8.7,0.6c2.6,1.8,4,4.8,3.7,7.9s-2.3,5.8-5.1,7C66.1,322.6,58.7,324.3,51.2,324.3z"/>
<path d="M460.8,324.3c-7.5,0-14.9-1.6-21.7-4.8c-2.9-1.2-4.8-3.9-5.1-7s1.1-6.1,3.7-7.9s5.9-2,8.7-0.6c12.7,5.9,27.7,3.5,37.9-6.1
	s13.5-24.4,8.3-37.4c-5.2-13-17.7-21.5-31.7-21.6c-6.7,0-13.3,2-18.9,5.6c-2.6,1.7-5.8,1.8-8.5,0.4c-2.7-1.4-4.5-4.1-4.6-7.2
	c-0.2-3,1.3-5.9,3.9-7.6c8.4-5.5,18.2-8.4,28.2-8.4c28.3,0,51.2,22.9,51.2,51.2S489.1,324.3,460.8,324.3z"/>
<path d="M256,102.4c-4.7,0-8.5-3.8-8.5-8.5c0-4.7,3.8-8.5,8.5-8.5c2.1,0,51.2-0.6,51.2-34.1S258.1,17.1,256,17.1
	c-4.7,0-8.5-3.8-8.5-8.5c0-4.7,3.8-8.5,8.5-8.5c23.6,0,68.3,10.7,68.3,51.2S279.6,102.4,256,102.4z"/>
<path d="M256,324.3c-18.8,0-34.1-15.3-34.1-34.1c0-4.7,3.8-8.5,8.5-8.5c4.7,0,8.5,3.8,8.5,8.5c0,9.4,7.6,17.1,17.1,17.1
	s17.1-7.6,17.1-17.1c0-4.7,3.8-8.5,8.5-8.5c4.7,0,8.5,3.8,8.5,8.5C290.1,309,274.8,324.2,256,324.3z"/>
<path d="M136.5,282.6c-3.5,0-6.6-2.1-7.9-5.3s-0.6-6.9,1.8-9.3c13.7-14.1,32.1-22.6,51.7-23.7c-14.2-4.9-29.4-6.5-44.3-4.5
	c-4.6,0.8-9-2.4-9.8-7c-0.8-4.6,2.3-9,7-9.8c2.3-0.4,56.6-9,85,28.9c2.3,3.1,2.3,7.3-0.1,10.3c-2.3,3-6.4,4.2-9.9,2.7
	c-23.6-8.4-49.9-2.5-67.6,15.2C141,281.7,138.8,282.6,136.5,282.6z"/>
<path d="M375.5,282.6c-2.3,0-4.4-0.9-6-2.5c-17.8-17.6-44-23.5-67.6-15.2c-3.6,1.4-7.6,0.3-9.9-2.8c-2.3-3-2.3-7.2-0.1-10.3
	c28.4-37.8,82.7-29.3,85-28.9c4.6,0.8,7.6,5.2,6.9,9.8c-0.8,4.6-5.1,7.7-9.7,7c-14.9-1.9-30-0.4-44.2,4.5
	c19.6,1.2,37.9,9.7,51.6,23.7c2.4,2.4,3.2,6.1,1.9,9.3C382,280.5,378.9,282.6,375.5,282.6z"/>
<path d="M256,477.9c-62.3,0-93.9-17.2-93.9-51.2c0-38.4,43.3-85.3,93.9-85.3s93.9,46.9,93.9,85.3C349.9,460.6,318.3,477.9,256,477.9
	z M256,358.4c-43.8,0-76.8,41.4-76.8,68.3c0,22.6,25.8,34.1,76.8,34.1s76.8-11.5,76.8-34.1C332.8,399.8,299.8,358.4,256,358.4z"/>
<path d="M322.4,465.9c-3.7,0-7-2.4-8.1-6c-6.1-19.3-30.6-33.3-58.3-33.3s-52.1,14-58.3,33.3c-1.4,4.5-6.2,7-10.7,5.6
	c-4.5-1.4-7-6.2-5.6-10.7c8.5-26.6,39.1-45.2,74.5-45.2s66.1,18.6,74.5,45.2c0.8,2.6,0.4,5.4-1.2,7.6
	C327.7,464.6,325.1,465.9,322.4,465.9z"/>
<path d="M85.3,418.1c-16.6,0-31.6-9.6-38.6-24.7s-4.7-32.7,6-45.4c13.4-16,60.3-25.1,69.6-26.8c2.5-0.4,5.1,0.2,7,1.9
	c1.9,1.6,3.1,4,3.1,6.6c0,9.4-0.8,57.2-14.2,73.2c-7.2,8.7-17.7,14.1-29,15.1C87.8,418.1,86.5,418.1,85.3,418.1z M114.9,340.2
	C95.3,344.5,71.6,352,65.7,359c-6,7-7.7,16.7-4.6,25.3c3.1,8.6,10.7,15,19.7,16.5c9.1,1.6,18.3-1.9,24.1-9
	C110.8,384.9,114,360.2,114.9,340.2z"/>
<path d="M426.7,418.1c-1.3,0-2.5-0.1-3.8-0.2c-11.3-1-21.7-6.4-29-15.1c-13.4-16-14.2-63.8-14.2-73.2c0-2.5,1.1-4.9,3.1-6.6
	c1.9-1.6,4.5-2.3,7-1.9c9.3,1.7,56.1,10.8,69.6,26.8c10.6,12.7,13,30.4,6,45.4C458.4,408.5,443.3,418.1,426.7,418.1z M397.1,340.2
	c0.9,20.1,4.1,44.7,10,51.7c9.1,10.7,25.2,12,35.9,3c10.8-9,12.3-25,3.3-35.9C440.4,352,416.7,344.5,397.1,340.2z"/>
<path d="M82,133.2c-0.4,0-0.7,0-1.1-0.1c-10.4-1.3-45.1-6.3-55.3-16.5c-12.2-13.4-11.3-34,2-46.3c12.2-13.3,32.9-14.2,46.3-2
	c10.2,10.2,15.2,44.9,16.5,55.3c0.3,2.4-0.5,4.9-2.1,6.7C86.8,132.2,84.4,133.2,82,133.2L82,133.2z M37.8,104.6
	c10.7,5.3,22.2,8.7,34.1,10c-1.2-11.9-4.6-23.4-10-34.1c-6.7-5.5-16.5-4.6-22.1,2C33.2,88,32.3,97.9,37.8,104.6z"/>
<path d="M430,133.2c-2.4,0-4.8-1.1-6.4-2.9c-1.6-1.8-2.4-4.3-2.1-6.7c1.3-10.4,6.3-45.1,16.5-55.3c13.4-12.2,34-11.3,46.3,2
	c13.3,12.2,14.2,32.9,2,46.3c-10.2,10.2-44.9,15.2-55.3,16.5C430.7,133.2,430.4,133.2,430,133.2z M459.3,76.8
	c-3.4-0.1-6.8,1.2-9.2,3.6c-5.4,10.7-8.7,22.2-10,34.1c11.9-1.2,23.4-4.6,34.1-10c5.5-6.7,4.6-16.5-2-22.1
	C468.8,78.9,464.2,76.9,459.3,76.8z"/>
</svg>
