<svg id="Calque_1" data-name="Calque 1" xmlns="http://www.w3.org/2000/svg" viewBox="0 0 64 64"><defs><style>.cls-1{fill:#f76464;}</style></defs><title>loader</title><path class="cls-1" d="M37.16,56.57c.4,0,.8,0,1.2,0A25.89,25.89,0,0,0,63,30.69,25.58,25.58,0,0,0,62.17,24h0a31.4,31.4,0,0,0-4.32-10C59.36,16.73,63.4,25,61.22,34.69a22.63,22.63,0,0,1-3.45,8.19A22.78,22.78,0,0,1,49,50.31c-1.2.57-10.24,4.73-18.42.52a12.75,12.75,0,0,1-5.86-5.4,11.22,11.22,0,0,1-1.34-5.67,11,11,0,0,0,1.28,4.44,12.13,12.13,0,0,0,5.57,5.15c7.8,4,16.41,0,17.56-.5a21.66,21.66,0,0,0,8.36-7.08A21.26,21.26,0,0,0,59.42,34c2.35-10.48-2.94-19.24-3.65-20.38A29.28,29.28,0,0,0,44.62,3.45,29.65,29.65,0,0,0,38.25,1a26.49,26.49,0,0,1,19,25.41c0,.51,0,1,0,1.52a26.32,26.32,0,0,1-2.78,10.39l-.19.3a17.08,17.08,0,0,1-1.45,1.88,19.59,19.59,0,0,1-2.31,2.2A20,20,0,0,1,45,45.93l-.57.2a20.1,20.1,0,0,1-7.57.87A13,13,0,0,1,35,46.72a12.46,12.46,0,0,1-1.92-.59A14.3,14.3,0,0,1,30,44.34a10.53,10.53,0,0,1-2.18-2.09,5.74,5.74,0,0,1-.53-.84,8.46,8.46,0,0,1-.36-6.79,8.86,8.86,0,0,1,1.93-2.72c1.84-1.73,4.7-2.42,7.47-2.64h0a14.1,14.1,0,0,1,2,0c7.38.49,11.49,4.47,10.36,7C54.82,22.2,35.84,13.65,22.66,12.61h0a5.06,5.06,0,0,1,3.41,2.7c-.63,0-1.29,0-2.06-.07a45.69,45.69,0,0,1-10.62-1.68c-.49-.14-1-.29-1.47-.46A10.05,10.05,0,0,1,8.8,11.53a9.23,9.23,0,0,1-1.07-1A9.33,9.33,0,0,1,5.37,5.62L5.3,5.11A11.35,11.35,0,0,0,3.76,18.88,10,10,0,0,0,5,20.46S-7,37.62,10.37,54.71c0,0-5.57-6.86-2.86-17.8l.16,2a28.48,28.48,0,0,0,3.55,11.76,24,24,0,0,0,8.66,9,23.75,23.75,0,0,0,8.1,3,29.09,29.09,0,0,0,23-6.34,33.48,33.48,0,0,1-15.37,2.55,25.18,25.18,0,0,1-8-1.79h0a17,17,0,0,1-5.08-3.27A18.73,18.73,0,0,1,18.89,49,25.38,25.38,0,0,0,26,54.3,26.81,26.81,0,0,0,37.16,56.57Zm3.13-34a4.1,4.1,0,0,1,3,2.8c-.33-.46-1.16.34-3-.74A4.52,4.52,0,0,1,38.62,22C38.93,22.36,39.61,22.39,40.29,22.6ZM23.35,28.12a14.51,14.51,0,0,0-4,15.68,11,11,0,0,1-5.64-9s-2.34,3.5-.39,9.44h0C17.82,57.49,27.82,60.49,29.85,61l.36.07L29.85,61c-17-3.52-19.57-17.19-19.46-25.54a24.74,24.74,0,0,1,.66-6.5l0-.12S6,29.58,5,35.92c-.39-3.22.48-9.28,5.06-15.78,0,0-5.38-1.37-5.06-8.48,0,0,1.36,6.24,11.88,6.53s13.64.19,15.49,1.85a6.26,6.26,0,0,0-1.76-3.41s3.9.58,4.48,4.09S37,26,38.62,26.37c0,0-11.67-3-15.76,9A12.66,12.66,0,0,1,23.35,28.12Z"/></svg>