<?xml version="1.0" encoding="iso-8859-1"?>
<!-- Generator: Adobe Illustrator 19.0.0, SVG Export Plug-In . SVG Version: 6.00 Build 0)  -->
<svg version="1.1" id="Capa_1" xmlns="http://www.w3.org/2000/svg" xmlns:xlink="http://www.w3.org/1999/xlink" x="0px" y="0px"
	 viewBox="0 0 512.002 512.002" style="enable-background:new 0 0 512.002 512.002;" xml:space="preserve">
<path style="fill:#EAC6BB;" d="M377.119,388.009c0,0-21.124,55.997-121.117,55.997c-99.994,0-121.114-55.997-121.114-55.997
	c16.722-8.718,29.12-17.436,29.12-23.998v-31.998c28.717,33.92,64.715,55.996,91.994,55.996s63.277-22.076,91.994-55.996v31.998
	C347.996,370.573,360.395,379.291,377.119,388.009z"/>
<path style="fill:#48CFAD;" d="M499.987,476.004c0,31.998,0,31.998,0,31.998H12.017c0,0,0,0,0-31.998s15.999-44.075,47.997-55.996
	c17.678-6.641,50.797-19.359,74.874-31.999c0,0,21.12,55.997,121.114,55.997c99.993,0,121.117-55.997,121.117-55.997
	c24.077,12.64,57.191,25.358,74.871,31.999C483.988,431.929,499.987,444.006,499.987,476.004z"/>
<g>
	<rect x="148.012" y="316.011" style="fill:#965353;" width="8" height="8"/>
	<rect x="355.992" y="316.011" style="fill:#965353;" width="8" height="8"/>
	<rect x="363.992" y="266.681" style="fill:#965353;" width="15.999" height="73.33"/>
	<rect x="379.992" y="146.531" style="fill:#965353;" width="15.999" height="169.49"/>
	<rect x="112.262" y="136.361" style="fill:#965353;" width="19.749" height="179.65"/>
	<rect x="132.012" y="160.361" style="fill:#965353;" width="15.999" height="179.65"/>
</g>
<path style="fill:#EAC6BB;" d="M256.002,60.037c77.276,0,139.991,60.398,139.991,151.991c0,91.595-86.714,175.981-139.991,175.981
	c-53.278,0-139.991-84.386-139.991-175.981C116.011,120.436,178.648,60.037,256.002,60.037z"/>
<g style="opacity:0.2;">
	<path d="M256.002,388.009c-27.279,0-63.277-22.076-91.994-55.996v7.945c28.686,33.896,64.715,56.051,91.994,56.051
		s63.309-22.155,91.994-56.051v-7.945C319.279,365.933,283.281,388.009,256.002,388.009z"/>
</g>
<g style="opacity:0.5;">
	<path style="fill:#FFFFFF;" d="M132.009,212.028c0-88.393,58.383-147.561,131.988-151.6c-2.659-0.144-5.296-0.391-7.995-0.391
		c-77.354,0-139.991,60.398-139.991,151.991c0,91.595,86.713,175.981,139.991,175.981c2.586,0,5.27-0.257,7.999-0.647
		C210.489,379.744,132.009,299.179,132.009,212.028z"/>
</g>
<g style="opacity:0.2;">
	<path d="M379.994,212.028c0-88.393-58.387-147.561-131.988-151.6c2.66-0.144,5.297-0.391,7.996-0.391
		c77.354,0,139.991,60.398,139.991,151.991c0,91.595-86.714,175.981-139.991,175.981c-2.586,0-5.269-0.257-8-0.647
		C301.515,379.744,379.994,299.179,379.994,212.028z"/>
</g>
<g>
	<path style="fill:#965353;" d="M156.008,20.036c-64.316,41.771-6.664,32.998-6.664,32.998l106.658,30.998l22.037-46.853
		C278.039,37.179,223.754-23.961,156.008,20.036z"/>
	<path style="fill:#965353;" d="M99.613,168.363h-23.6V124.03c0-89.658,63.997-95.994,63.997-95.994s22.151-0.82,32.248,1.496
		C189.326,33.445,99.613,168.363,99.613,168.363z"/>
	<path style="fill:#965353;" d="M72.974,196.025H58.733c7.949-34.83,25.659-59.661,25.659-59.661l5.621,28.389L72.974,196.025z"/>
	<path style="fill:#965353;" d="M411.586,168.363h23.608V124.03c0-89.658-63.996-95.994-63.996-95.994s-22.155-0.82-32.249,1.496
		C321.873,33.445,411.586,168.363,411.586,168.363z"/>
	<path style="fill:#965353;" d="M438.225,196.025h14.25c-7.953-34.83-25.663-59.661-25.663-59.661l-5.616,28.389L438.225,196.025z"
		/>
	<path style="fill:#965353;" d="M459.989,244.022h-16.562c-0.313-5.441-0.718-10.8-1.117-16h16.96
		C459.756,233.222,459.989,238.581,459.989,244.022z"/>
</g>
<path style="fill:#AC92EC;" d="M459.271,228.023h-16.96c-0.882-11.198-2-21.921-3.281-31.998h14.241
	C456.146,206.185,458.225,216.902,459.271,228.023z"/>
<path style="fill:#965353;" d="M270.235,86.352c18.249-70.555,139.914-113.755,168.716,109.673h0.078
	c1.281,10.077,2.399,20.8,3.281,31.998c0.399,5.199,0.805,10.558,1.117,16c1.047,17.357,1.602,35.993,1.688,55.992H429.03
	c0-5.522,0-10.796-0.164-15.999c-0.078-11.117-0.477-21.834-0.953-31.994h-16.241c0.398,7.602,0.641,15.597,0.719,23.995h-0.398
	h-15.999v-8v-55.989v-40.001c0,0-23.999-75.327-94.635-55.997c0,0-11.608,3.25-17.358-4c0,0-12.999,1.227-15.999-8
	c0,0-9.499,6.875-23.998,0c0,0-2.668,12-16,8c0,0-2.218,9.667-17.358,4c0,0-21.37-8.218-49.919,3.48
	c-28.717,11.769-45.036,52.517-45.036,52.517l0.32,39.998v55.993v8h-15.999h-0.399c0.079-8.398,0.32-16.394,0.719-23.995H84.09
	c-0.477,10.16-0.878,20.877-0.957,31.994c-0.16,5.203-0.16,10.477-0.16,15.999h-16.08c0.082-19.999,0.64-38.635,1.68-55.992
	c0.32-5.441,0.722-10.8,1.121-16c0.879-11.198,2-21.921,3.281-31.998h0.078C95.293,23.637,172.808,9.959,215.364,45.155l12.64-1.121
	c0,0,16.878,4.48,23.999,16l10.48,1.281c-2.801,6.64-4.961,14.16-6.48,22.717L270.235,86.352z"/>
<path style="fill:#48CFAD;" d="M429.03,300.015h16.085c0,10.319-0.164,20.959-0.405,31.998h-15.68h-0.476
	C428.866,320.974,429.03,310.257,429.03,300.015z"/>
<g>
	<path style="fill:#965353;" d="M429.03,332.013h15.68c-0.157,5.281-0.32,10.562-0.485,15.999h-16.233
		c0.234-5.438,0.398-10.718,0.563-15.999H429.03z"/>
	<path style="fill:#965353;" d="M429.03,300.015h-17.038c0.157-5.437,0.32-10.796,0.398-15.999h16.476
		C429.03,289.219,429.03,294.492,429.03,300.015z"/>
</g>
<path style="fill:#A0D468;" d="M428.866,284.016H412.39c0-2.718,0-5.358,0-7.999c-0.078-8.398-0.32-16.394-0.719-23.995h16.241
	C428.39,262.182,428.788,272.898,428.866,284.016z"/>
<path style="fill:#FFCE54;" d="M412.391,276.017c0,2.641,0,5.281,0,7.999c-0.078,5.203-0.241,10.563-0.398,15.999v7.999h-15.999
	v-31.997h15.999L412.391,276.017L412.391,276.017z"/>
<g>
	<polygon style="fill:#965353;" points="411.992,308.014 411.992,324.014 395.993,324.014 395.993,316.014 395.993,308.014 	"/>
	<rect x="379.992" y="340.011" style="fill:#965353;" width="15.999" height="15.999"/>
</g>
<polygon style="fill:#5D9CEC;" points="395.993,324.014 395.993,340.013 379.994,340.013 379.994,316.014 395.993,316.014 "/>
<rect x="116.012" y="340.011" style="fill:#965353;" width="15.999" height="15.999"/>
<polygon style="fill:#A0D468;" points="132.009,316.014 132.009,340.013 116.011,340.013 116.011,324.014 116.011,316.014 "/>
<polygon style="fill:#965353;" points="116.011,316.014 116.011,324.014 100.012,324.014 100.012,308.014 116.011,308.014 "/>
<path style="fill:#5D9CEC;" d="M116.011,276.017v31.997h-15.999v-7.999c-0.16-5.437-0.32-10.796-0.399-15.999
	c0-2.718,0-5.358,0-7.999h0.399L116.011,276.017L116.011,276.017z"/>
<path style="fill:#FFCE54;" d="M84.09,252.022h16.242c-0.399,7.602-0.641,15.597-0.719,23.995c0,2.641,0,5.281,0,7.999h-16.48
	C83.212,272.898,83.614,262.182,84.09,252.022z"/>
<g>
	<path style="fill:#965353;" d="M100.012,300.015H82.973c0-5.522,0-10.796,0.16-15.999h16.479
		C99.691,289.219,99.852,294.578,100.012,300.015z"/>
	<path style="fill:#965353;" d="M84.013,348.012H67.775c-0.16-5.438-0.32-10.718-0.48-15.999h15.678h0.48
		C83.614,337.294,83.774,342.574,84.013,348.012z"/>
</g>
<path style="fill:#AC92EC;" d="M83.454,332.013h-0.48H67.295c-0.242-11.039-0.402-21.679-0.402-31.998h16.081
	C82.973,310.257,83.133,320.974,83.454,332.013z"/>
<path style="fill:#48CFAD;" d="M58.733,196.025h14.241c-1.281,10.077-2.402,20.8-3.281,31.998H52.815
	C53.776,216.902,55.854,206.185,58.733,196.025z"/>
<path style="fill:#965353;" d="M52.815,228.023h16.877c-0.398,5.199-0.8,10.558-1.121,16H52.014c0-5.441,0.239-10.8,0.719-16H52.815
	z"/>
<g style="opacity:0.3;">
	<path d="M451.99,420.008c-17.68-6.641-50.794-19.359-74.871-31.999c0,0-3.03,7.992-12.163,17.93
		c23.663,11.99,54.254,23.764,71.034,30.068c31.999,11.921,47.998,23.998,47.998,55.996c0,6.632,0,11.827,0,15.999h15.999
		c0,0,0,0,0-31.998S483.988,431.929,451.99,420.008z"/>
</g>
<path style="fill:#965353;" d="M379.994,49.37c-10.999-36.998-39.997-37.334-39.997-37.334s-69.176-4.035-83.995,71.996
	c-8,41.044,127.992,0,127.992,0S390.994,86.368,379.994,49.37z"/>
<path style="fill:#EAC6BB;" d="M256.002,436.007c-79.269,0-108.946-35.17-117.856-49.755c-1.082,0.586-2.132,1.172-3.257,1.757
	c0,0,21.12,55.997,121.114,55.997c99.993,0,121.117-55.997,121.117-55.997c-1.125-0.585-2.18-1.171-3.265-1.757
	C364.948,400.837,335.271,436.007,256.002,436.007z"/>
<g style="opacity:0.2;">
	<path d="M256.002,436.007c-79.269,0-108.946-35.17-117.856-49.755c-1.082,0.586-2.132,1.172-3.257,1.757
		c0,0,21.12,55.997,121.114,55.997c99.993,0,121.117-55.997,121.117-55.997c-1.125-0.585-2.18-1.171-3.265-1.757
		C364.948,400.837,335.271,436.007,256.002,436.007z"/>
</g>
<g style="opacity:0.5;">
	<path style="fill:#FFFFFF;" d="M134.888,388.009c-24.077,12.64-57.196,25.358-74.874,31.999
		c-31.999,11.921-47.997,23.998-47.997,55.996s0,31.998,0,31.998h15.999c0-4.172,0-9.367,0-15.999c0-31.998,16-44.075,47.997-55.996
		c16.777-6.305,47.373-18.078,71.035-30.068C137.911,396.001,134.888,388.009,134.888,388.009z"/>
	<path style="fill:#FFFFFF;" d="M152.364,403.211c15.948-8.452,27.643-16.842,27.643-23.201v-23.085
		c-5.504-5.241-10.875-10.913-15.999-16.967v24.053c0,6.125-10.843,14.116-25.862,22.241
		C140.786,390.579,145.321,396.72,152.364,403.211z"/>
</g>
<g style="opacity:0.2;">
	<path d="M359.636,403.211c7.047-6.491,11.578-12.632,14.219-16.959c-15.015-8.125-25.858-16.116-25.858-22.241v-24.053
		c-5.125,6.054-10.499,11.726-15.999,16.967v23.085C331.997,386.369,343.691,394.759,359.636,403.211z"/>
</g>
<g>
	<path style="fill:#3A3847;" d="M499.987,512.002H12.017c-2.211,0-4-1.789-4-4v-31.998c0-34.373,17.784-47.521,50.602-59.746
		c12.034-4.516,48.692-18.289,74.409-31.787c26.222-13.672,26.979-19.804,26.979-20.46c0-2.211,1.789-4,4-4c2.21,0,4,1.789,4,4
		c0,5.234-3.554,13.093-31.272,27.545c-26.146,13.726-63.156,27.632-75.315,32.193c-30.768,11.469-45.404,22.202-45.404,52.255
		v27.998h479.971v-27.998c0-30.053-14.64-40.786-45.388-52.247c-12.171-4.569-49.185-18.476-75.34-32.208
		c-27.709-14.445-31.264-22.304-31.264-27.538c0-2.211,1.789-4,4-4s4,1.789,4,4c0,0.656,0.758,6.788,26.967,20.452
		c25.732,13.506,62.387,27.279,74.433,31.802c32.811,12.219,50.591,25.366,50.591,59.739v31.998
		C503.986,510.213,502.198,512.002,499.987,512.002z"/>
	<path style="fill:#3A3847;" d="M256.002,392.009c-28.213,0-65.52-22.537-95.049-57.41c-17.62-20.843-31.291-44.552-39.529-68.565
		c-6.246-18.051-9.414-36.225-9.414-54.009c0-2.211,1.789-4,4-4c2.21,0,4,1.789,4,4c0,16.89,3.02,34.189,8.98,51.407
		c7.921,23.093,21.084,45.912,38.072,65.996c28.069,33.162,62.981,54.583,88.94,54.583s60.871-21.421,88.939-54.583
		c16.992-20.084,30.147-42.903,38.068-65.983c5.969-17.23,8.984-34.53,8.984-51.419c0-2.211,1.788-4,3.999-4c2.212,0,4,1.789,4,4
		c0,17.784-3.172,35.958-9.421,54.016c-8.234,24.007-21.905,47.716-39.521,68.559C321.522,369.472,284.22,392.009,256.002,392.009z"
		/>
	<path style="fill:#3A3847;" d="M164.008,368.01c-2.211,0-4-1.788-4-3.999v-31.998c0-2.211,1.789-3.999,4-3.999
		c2.21,0,4,1.788,4,3.999v31.998C168.007,366.222,166.218,368.01,164.008,368.01z"/>
	<path style="fill:#3A3847;" d="M347.996,368.01c-2.211,0-4-1.788-4-3.999v-31.998c0-2.211,1.789-3.999,4-3.999s4,1.788,4,3.999
		v31.998C351.996,366.222,350.207,368.01,347.996,368.01z"/>
	<path style="fill:#3A3847;" d="M84.013,352.012H67.775c-2.211,0-4-1.789-4-4s1.789-4,4-4h16.237c2.21,0,4,1.789,4,4
		S86.223,352.012,84.013,352.012z"/>
	<path style="fill:#3A3847;" d="M132.009,360.011H116.01c-2.211,0-4-1.788-4-3.999s1.789-4,4-4h15.999c2.211,0,4,1.789,4,4
		S134.22,360.011,132.009,360.011z"/>
	<path style="fill:#3A3847;" d="M67.772,352.012c-2.152,0-3.93-1.711-3.996-3.883l-0.48-15.991
		c-0.243-11.109-0.403-21.772-0.403-32.123c0.083-19.991,0.648-38.903,1.688-56.231c0.32-5.46,0.727-10.843,1.125-16.065
		c0.848-10.804,1.957-21.636,3.3-32.197c0.282-2.188,2.309-3.699,4.473-3.465c2.191,0.281,3.742,2.281,3.465,4.472
		c-1.328,10.437-2.426,21.14-3.262,31.807c-0.398,5.168-0.796,10.503-1.117,15.92c-1.027,17.188-1.59,35.947-1.671,55.774
		c0,10.273,0.16,20.89,0.402,31.896l0.48,15.968c0.063,2.211-1.676,4.047-3.882,4.117C67.853,352.012,67.814,352.012,67.772,352.012
		z"/>
	<path style="fill:#3A3847;" d="M73.056,200.024c-0.167,0-0.343-0.011-0.516-0.031c-2.191-0.285-3.737-2.289-3.457-4.48
		c15.754-122.101,58.239-156.162,82.16-165.599c22.354-8.824,46.657-4.386,66.671,12.16c18.836,15.416,30.088,38.583,30.088,61.956
		c0,2.211-1.789,4-4,4s-4-1.789-4-4c0-20.686-10.414-42.06-27.174-55.781c-17.706-14.644-39.08-18.608-58.653-10.894
		c-22.279,8.789-61.93,41.157-77.155,159.182C76.759,198.552,75.036,200.024,73.056,200.024z"/>
	<path style="fill:#3A3847;" d="M84.008,352.012c-2.128,0-3.898-1.68-3.992-3.828c-0.238-5.453-0.398-10.75-0.563-16.046
		c-0.32-11.085-0.48-21.843-0.48-32.123c0-5.562,0-10.882,0.16-16.124c0.086-12.063,0.559-23.472,0.961-32.057
		c7.788-155.342,54.328-210.522,95.72-210.522c0.391,0,0.781,0.004,1.168,0.012c30.854,0.773,55.02,31.83,55.02,70.707
		c0,2.211-1.789,4-4,4c-2.21,0-4-1.789-4-4c0-33.924-21.182-62.055-47.219-62.708c-36.373-1.031-81.116,51.692-88.698,202.898
		c-0.398,8.499-0.867,19.804-0.953,31.826c-0.16,5.257-0.16,10.483-0.16,15.968c0,10.203,0.16,20.882,0.48,31.881
		c0.156,5.258,0.316,10.523,0.555,15.944c0.098,2.203-1.613,4.07-3.82,4.172C84.13,352.012,84.067,352.012,84.008,352.012z"/>
	<path style="fill:#3A3847;" d="M82.973,304.015h-16.08c-2.211,0-4-1.789-4-4s1.789-4,4-4h16.081c2.211,0,4,1.789,4,4
		S85.184,304.015,82.973,304.015z"/>
	<path style="fill:#3A3847;" d="M82.973,336.013H67.295c-2.211,0-4-1.789-4-4s1.789-3.999,4-3.999h15.678c2.211,0,4,1.788,4,3.999
		S85.184,336.013,82.973,336.013z"/>
	<path style="fill:#3A3847;" d="M105.929,160.027c-0.539,0-1.09-0.109-1.614-0.343c-2.022-0.891-2.933-3.254-2.038-5.273
		c33.767-76.331,88.881-66.996,111.021-59.445c2.089,0.711,3.207,2.984,2.492,5.078c-0.715,2.086-2.984,3.207-5.078,2.492
		c-20.046-6.832-70.035-15.151-101.123,55.11C108.929,159.141,107.464,160.027,105.929,160.027z"/>
	<path style="fill:#3A3847;" d="M96.012,300.132c-0.168-5.766-0.32-10.983-0.398-16.054v-8.062
		c0.078-8.492,0.324-16.55,0.723-24.206c3.664-65.395,21.053-109.052,51.688-129.777c30.569-20.671,62.551-10.25,63.899-9.792
		c2.09,0.703,3.21,2.968,2.511,5.058c-0.699,2.094-2.976,3.222-5.058,2.523c-0.301-0.105-29.744-9.578-56.977,8.909
		c-28.389,19.285-44.563,60.84-48.075,123.512c-0.395,7.534-0.633,15.468-0.711,23.812v7.96c0.074,4.977,0.227,10.156,0.382,15.413
		l-3.983,0.586L96.012,300.132z"/>
	<path style="fill:#3A3847;" d="M100.012,304.015H82.973c-2.21,0-4-1.789-4-4s1.789-4,4-4h17.039c2.211,0,4,1.789,4,4
		S102.223,304.015,100.012,304.015z"/>
	<path style="fill:#3A3847;" d="M99.613,288.016h-16.48c-2.21,0-4.082-1.789-4.082-4s1.711-4,3.921-4h16.64c2.211,0,4,1.789,4,4
		S101.824,288.016,99.613,288.016z"/>
	<path style="fill:#3A3847;" d="M100.332,256.022H84.09c-2.21,0-4-1.789-4-4s1.789-4,4-4h16.242c2.211,0,4,1.789,4,4
		S102.543,256.022,100.332,256.022z"/>
	<path style="fill:#3A3847;" d="M132.009,104.03c-0.941,0-1.882-0.328-2.644-1c-1.656-1.457-1.816-3.988-0.355-5.644
		c15.909-18.058,32.74-27.643,50.028-28.483c21.284-1.035,35.119,11.659,35.697,12.207c1.609,1.503,1.695,4.023,0.195,5.636
		c-1.496,1.617-4.023,1.703-5.648,0.218c-0.121-0.109-12.039-11.007-29.986-10.065c-15.003,0.777-29.905,9.453-44.287,25.775
		C134.22,103.574,133.115,104.03,132.009,104.03z"/>
	<path style="fill:#3A3847;" d="M148.013,72.033c-1.172,0-2.332-0.512-3.121-1.496c-1.386-1.723-1.109-4.238,0.613-5.621
		c11.171-8.972,29.916-14.761,44.111-8.547c2.023,0.891,2.941,3.25,2.055,5.273c-0.891,2.019-3.242,2.934-5.274,2.054
		c-9.796-4.3-25.229-1.101-35.884,7.453C149.774,71.744,148.891,72.033,148.013,72.033z"/>
	<path style="fill:#3A3847;" d="M52.014,248.022c-2.211,0-3.999-1.789-3.999-3.999c0-5.578,0.246-11.085,0.734-16.367
		c0.207-2.195,2.156-3.809,4.351-3.617c2.199,0.203,3.82,2.152,3.618,4.351c-0.469,5.039-0.704,10.3-0.704,15.632
		C56.014,246.232,54.225,248.022,52.014,248.022z"/>
	<path style="fill:#3A3847;" d="M52.819,232.023c-0.113,0-0.23-0.004-0.347-0.016c-2.204-0.188-3.832-2.128-3.641-4.328
		c0.937-10.862,2.977-21.877,6.054-32.744c2.102-7.796,4.875-15.808,8.476-24.448c0.855-2.035,3.203-3,5.23-2.152
		c2.039,0.848,3.003,3.191,2.152,5.23c-3.461,8.312-6.128,15.999-8.148,23.499c-2.957,10.429-4.902,20.944-5.796,31.303
		C56.62,230.453,54.874,232.023,52.819,232.023z"/>
	<path style="fill:#3A3847;" d="M68.572,248.022H52.014c-2.211,0-3.999-1.789-3.999-3.999c0-2.211,1.788-4,3.999-4h16.558
		c2.21,0,4,1.789,4,4C72.572,246.232,70.783,248.022,68.572,248.022z"/>
	<path style="fill:#3A3847;" d="M69.693,232.023H52.815c-2.211,0-4.039-1.789-4.039-4s1.746-4,3.957-4h16.96c2.211,0,4,1.789,4,4
		S71.904,232.023,69.693,232.023z"/>
	<path style="fill:#3A3847;" d="M73.052,200.024H58.733c-2.211,0-4.039-1.789-4.039-4s1.75-4,3.961-4h14.319
		c2.211,0,4.039,1.789,4.039,4S75.263,200.024,73.052,200.024z"/>
	<path style="fill:#3A3847;" d="M116.011,328.014c-2.211,0-4-1.79-4-4v-55.997c0-2.211,1.789-4,4-4c2.21,0,4,1.789,4,4v55.997
		C120.01,326.224,118.221,328.014,116.011,328.014z"/>
	<path style="fill:#3A3847;" d="M116.011,328.014h-15.999c-2.211,0-4-1.79-4-4c0-2.211,1.789-4,4-4h15.999c2.21,0,4,1.789,4,4
		C120.01,326.224,118.221,328.014,116.011,328.014z"/>
	<path style="fill:#3A3847;" d="M100.012,328.014c-2.211,0-4-1.79-4-4v-23.999c0-2.211,1.789-4,4-4s4,1.789,4,4v23.999
		C104.011,326.224,102.223,328.014,100.012,328.014z"/>
	<path style="fill:#3A3847;" d="M116.011,312.014h-15.999c-2.211,0-4-1.789-4-4c0-2.21,1.789-3.999,4-3.999h15.999
		c2.21,0,4,1.789,4,3.999C120.01,310.225,118.221,312.014,116.011,312.014z"/>
	<path style="fill:#3A3847;" d="M116.011,280.016h-15.999c-2.211,0-4-1.788-4-3.999s1.789-4,4-4h15.999c2.21,0,4,1.789,4,4
		S118.221,280.016,116.011,280.016z"/>
	<path style="fill:#3A3847;" d="M116.011,360.011c-2.211,0-4-1.788-4-3.999v-31.998c0-2.211,1.789-4,4-4c2.21,0,4,1.789,4,4v31.998
		C120.01,358.223,118.221,360.011,116.011,360.011z"/>
	<path style="fill:#3A3847;" d="M132.009,360.011c-2.211,0-3.999-1.788-3.999-3.999v-47.998c0-2.21,1.788-3.999,3.999-3.999
		s4,1.789,4,3.999v47.998C136.009,358.223,134.22,360.011,132.009,360.011z"/>
	<path style="fill:#3A3847;" d="M132.009,344.012H116.01c-2.211,0-4-1.788-4-3.999s1.789-4,4-4h15.999c2.211,0,4,1.789,4,4
		S134.22,344.012,132.009,344.012z"/>
	<path style="fill:#3A3847;" d="M132.009,320.014H116.01c-2.211,0-4-1.79-4-4c0-2.211,1.789-4,4-4h15.999c2.211,0,4,1.789,4,4
		C136.009,318.224,134.22,320.014,132.009,320.014z"/>
	<path style="fill:#3A3847;" d="M148.008,344.012c-2.21,0-4-1.788-4-3.999v-15.999c0-2.211,1.789-4,4-4s4,1.789,4,4v15.999
		C152.008,342.224,150.219,344.012,148.008,344.012z"/>
	<path style="fill:#3A3847;" d="M148.008,344.012h-15.999c-2.211,0-3.999-1.788-3.999-3.999s1.788-4,3.999-4h15.999
		c2.211,0,4,1.789,4,4S150.219,344.012,148.008,344.012z"/>
	<path style="fill:#3A3847;" d="M76.013,128.029c-2.21,0-4-1.789-4-4c0-90.479,66.824-99.876,67.5-99.962
		c2.192-0.262,4.184,1.277,4.461,3.464s-1.273,4.188-3.461,4.473c-2.468,0.32-60.5,8.815-60.5,92.025
		C80.013,126.24,78.224,128.029,76.013,128.029z"/>
	<path style="fill:#3A3847;" d="M444.232,352.012c-0.039,0-0.086,0-0.117,0c-2.211-0.07-3.953-1.906-3.891-4.117l0.485-16.007
		c0.241-10.968,0.405-21.584,0.405-31.873c-0.086-19.812-0.648-38.571-1.671-55.755c-0.329-5.421-0.72-10.756-1.125-15.932
		c-0.829-10.659-1.93-21.362-3.259-31.799c-0.272-2.191,1.274-4.191,3.461-4.472c2.203-0.246,4.203,1.277,4.478,3.465
		c1.343,10.561,2.452,21.393,3.304,32.189c0.391,5.23,0.797,10.612,1.125,16.077c1.031,17.324,1.602,36.236,1.688,56.212
		c0,10.366-0.164,21.029-0.406,32.1l-0.484,16.03C448.162,350.301,446.381,352.012,444.232,352.012z"/>
	<path style="fill:#3A3847;" d="M438.944,200.024c-1.984,0-3.704-1.472-3.961-3.487c-18.42-142.925-71.777-161.565-93.862-162.943
		c-29.271-1.785-58.738,21.78-67.012,53.758c-1.39,5.601-2.108,11.222-2.108,16.678c0,2.211-1.789,4-4,4s-4-1.789-4-4
		c0-6.108,0.798-12.381,2.359-18.647c9.203-35.596,42.279-61.906,75.261-59.774c24.062,1.504,82.113,21.069,101.299,169.904
		c0.281,2.191-1.266,4.195-3.46,4.48C439.288,200.013,439.115,200.024,438.944,200.024z"/>
	<path style="fill:#3A3847;" d="M427.991,352.012c-0.055,0-0.116,0-0.172,0c-2.211-0.102-3.922-1.969-3.828-4.172
		c0.243-5.421,0.406-10.687,0.563-15.952c0.312-10.991,0.476-21.67,0.476-31.873c0-5.484,0-10.711-0.164-15.874
		c-0.078-12.116-0.546-23.421-0.952-31.932c-7.579-151.206-52.545-203.987-88.698-202.886C309.187,49.976,288,78.107,288,112.031
		c0,2.211-1.789,4-4,4s-4-1.789-4-4c0-38.876,24.171-69.934,55.021-70.707c41.661-0.75,89.025,53.696,96.893,210.499
		c0.398,8.597,0.875,20.006,0.953,32.162c0.163,5.148,0.163,10.469,0.163,16.03c0,10.28-0.163,21.038-0.476,32.115
		c-0.172,5.304-0.328,10.601-0.563,16.054C431.898,350.332,430.124,352.012,427.991,352.012z"/>
	<path style="fill:#3A3847;" d="M445.115,304.015H429.03c-2.21,0-4-1.789-4-4s1.79-4,4-4h16.085c2.203,0,4,1.789,4,4
		S447.318,304.015,445.115,304.015z"/>
	<path style="fill:#3A3847;" d="M444.71,336.013h-15.68c-2.21,0-4-1.789-4-4s1.79-3.999,4-3.999h15.68
		c2.21,0,3.999,1.788,3.999,3.999S446.92,336.013,444.71,336.013z"/>
	<path style="fill:#3A3847;" d="M406.07,160.027c-1.53,0-3-0.886-3.655-2.382c-31.092-70.27-81.073-61.938-101.119-55.11
		c-2.109,0.711-4.375-0.406-5.077-2.492c-0.719-2.093,0.397-4.367,2.483-5.078c22.14-7.558,77.253-16.878,111.024,59.445
		c0.891,2.02-0.016,4.382-2.038,5.273C407.165,159.918,406.618,160.027,406.07,160.027z"/>
	<path style="fill:#3A3847;" d="M411.992,303.779c-0.039,0-0.078,0-0.109,0c-2.211-0.07-3.953-1.671-3.891-3.882
		c0.173-5.726,0.328-10.905,0.398-15.944v-7.937c-0.078-8.305-0.32-16.238-0.711-23.784c-3.515-62.66-19.686-104.216-48.075-123.5
		c-27.232-18.491-56.676-9.011-56.979-8.909c-2.079,0.691-4.345-0.43-5.056-2.523c-0.694-2.09,0.422-4.355,2.508-5.058
		c1.352-0.457,33.326-10.886,63.902,9.792c30.639,20.725,48.028,64.382,51.685,129.765c0.406,7.668,0.648,15.726,0.727,24.179v8.038
		c-0.078,5.133-0.227,10.351-0.383,15.648C415.945,301.835,414.148,303.779,411.992,303.779z"/>
	<path style="fill:#3A3847;" d="M429.03,304.015h-17.038c-2.211,0-4-1.789-4-4s1.789-4,4-4h17.038c2.211,0,3.999,1.789,3.999,4
		S431.241,304.015,429.03,304.015z"/>
	<path style="fill:#3A3847;" d="M429.03,288.016h-16.64c-2.211,0-4-1.789-4-4s1.789-4,4-4h16.476c2.219,0,4.086,1.789,4.086,4
		S431.241,288.016,429.03,288.016z"/>
	<path style="fill:#3A3847;" d="M427.913,256.022h-16.241c-2.211,0-4-1.789-4-4s1.789-4,4-4h16.241c2.211,0,4,1.789,4,4
		S430.124,256.022,427.913,256.022z"/>
	<path style="fill:#3A3847;" d="M379.994,104.03c-1.109,0-2.211-0.457-3-1.355c-14.429-16.374-29.373-25.049-44.419-25.783
		c-17.936-0.898-29.732,9.957-29.842,10.062c-1.617,1.511-4.148,1.421-5.656-0.191c-1.508-1.617-1.422-4.148,0.188-5.652
		c0.579-0.547,14.327-13.343,35.701-12.207c17.288,0.84,34.123,10.425,50.028,28.483c1.461,1.656,1.297,4.187-0.359,5.644
		C381.877,103.703,380.932,104.03,379.994,104.03z"/>
	<path style="fill:#3A3847;" d="M363.995,72.033c-0.883,0-1.766-0.289-2.5-0.883c-10.655-8.554-26.092-11.745-35.889-7.453
		c-2.031,0.879-4.39-0.035-5.272-2.054c-0.883-2.023,0.031-4.383,2.055-5.273c14.21-6.226,32.951-0.425,44.106,8.547
		c1.727,1.382,2,3.898,0.617,5.621C366.323,71.521,365.167,72.033,363.995,72.033z"/>
	<path style="fill:#3A3847;" d="M459.989,248.022c-2.211,0-3.999-1.789-3.999-3.999c0-5.332-0.234-10.593-0.704-15.632
		c-0.983-10.488-2.952-21.01-5.858-31.276c-2.039-7.55-4.703-15.237-8.172-23.549c-0.844-2.039,0.117-4.382,2.156-5.23
		c2.039-0.851,4.383,0.118,5.234,2.152c3.594,8.64,6.374,16.652,8.484,24.499c3.03,10.679,5.093,21.686,6.125,32.662
		c0.483,5.289,0.733,10.796,0.733,16.375C463.989,246.232,462.2,248.022,459.989,248.022z"/>
	<path style="fill:#3A3847;" d="M459.989,248.022h-16.562c-2.203,0-3.999-1.789-3.999-3.999c0-2.211,1.796-4,3.999-4h16.562
		c2.211,0,4,1.789,4,4C463.989,246.232,462.2,248.022,459.989,248.022z"/>
	<path style="fill:#3A3847;" d="M459.271,232.023h-16.96c-2.211,0-4-1.789-4-4s1.789-4,4-4h16.96c2.211,0,3.999,1.789,3.999,4
		S461.481,232.023,459.271,232.023z"/>
	<path style="fill:#3A3847;" d="M453.35,200.024h-14.32c-2.21,0-4.039-1.789-4.039-4s1.75-4,3.961-4h14.319
		c2.211,0,4.04,1.789,4.04,4S455.561,200.024,453.35,200.024z"/>
	<path style="fill:#3A3847;" d="M395.993,328.014c-2.211,0-3.999-1.79-3.999-4v-55.997c0-2.211,1.788-4,3.999-4c2.212,0,4,1.789,4,4
		v55.997C399.993,326.224,398.205,328.014,395.993,328.014z"/>
	<path style="fill:#3A3847;" d="M411.992,328.014h-15.999c-2.211,0-3.999-1.79-3.999-4c0-2.211,1.788-4,3.999-4h15.999
		c2.211,0,4,1.789,4,4C415.992,326.224,414.203,328.014,411.992,328.014z"/>
	<path style="fill:#3A3847;" d="M411.992,328.014c-2.211,0-4-1.79-4-4v-23.999c0-2.211,1.789-4,4-4s4,1.789,4,4v23.999
		C415.992,326.224,414.203,328.014,411.992,328.014z"/>
	<path style="fill:#3A3847;" d="M411.992,312.014h-15.999c-2.211,0-3.999-1.789-3.999-4c0-2.21,1.788-3.999,3.999-3.999h15.999
		c2.211,0,4,1.789,4,3.999C415.992,310.225,414.203,312.014,411.992,312.014z"/>
	<path style="fill:#3A3847;" d="M411.992,280.016h-15.999c-2.211,0-3.999-1.788-3.999-3.999s1.788-4,3.999-4h15.999
		c2.211,0,4,1.789,4,4S414.203,280.016,411.992,280.016z"/>
	<path style="fill:#3A3847;" d="M395.993,360.011c-2.211,0-3.999-1.788-3.999-3.999v-31.998c0-2.211,1.788-4,3.999-4
		c2.212,0,4,1.789,4,4v31.998C399.993,358.223,398.205,360.011,395.993,360.011z"/>
	<path style="fill:#3A3847;" d="M379.994,360.011c-2.211,0-4-1.788-4-3.999v-47.998c0-2.21,1.789-3.999,4-3.999s4,1.789,4,3.999
		v47.998C383.994,358.223,382.205,360.011,379.994,360.011z"/>
	<path style="fill:#3A3847;" d="M395.993,344.012h-15.999c-2.211,0-4-1.788-4-3.999s1.789-4,4-4h15.999c2.212,0,4,1.789,4,4
		S398.205,344.012,395.993,344.012z"/>
	<path style="fill:#3A3847;" d="M395.993,320.014h-15.999c-2.211,0-4-1.79-4-4c0-2.211,1.789-4,4-4h15.999c2.212,0,4,1.789,4,4
		C399.993,318.224,398.205,320.014,395.993,320.014z"/>
	<path style="fill:#3A3847;" d="M363.995,344.012c-2.21,0-4-1.788-4-3.999v-15.999c0-2.211,1.79-4,4-4c2.211,0,4,1.789,4,4v15.999
		C367.995,342.224,366.206,344.012,363.995,344.012z"/>
	<path style="fill:#3A3847;" d="M379.994,344.012h-15.999c-2.21,0-4-1.788-4-3.999s1.79-4,4-4h15.999c2.211,0,4,1.789,4,4
		S382.205,344.012,379.994,344.012z"/>
	<path style="fill:#3A3847;" d="M435.99,128.029c-2.211,0-3.999-1.789-3.999-4c0-83.21-58.027-91.705-60.497-92.025
		c-2.187-0.285-3.741-2.285-3.468-4.473c0.281-2.188,2.266-3.73,4.468-3.464c0.673,0.086,67.496,9.484,67.496,99.962
		C439.99,126.24,438.201,128.029,435.99,128.029z"/>
	<path style="fill:#3A3847;" d="M256.006,88.032c-0.23,0-0.465-0.02-0.703-0.063c-2.176-0.387-3.625-2.461-3.238-4.637
		c1.57-8.843,3.773-16.553,6.73-23.573c22.58-54.778,80.874-51.762,81.452-51.716c2.202,0.141,3.874,2.035,3.733,4.238
		c-0.132,2.199-1.937,3.789-4.233,3.746c-2.141-0.137-53.2-2.617-73.566,46.81c-2.737,6.496-4.776,13.644-6.241,21.894
		C259.595,86.668,257.908,88.032,256.006,88.032z"/>
	<path style="fill:#3A3847;" d="M260.002,48.034c-1.017,0-2.031-0.383-2.813-1.156c-24.924-24.624-60.59-22.866-60.954-22.85
		c-2.23,0.121-4.098-1.559-4.223-3.761c-0.128-2.208,1.559-4.098,3.762-4.223c1.605-0.09,39.606-1.953,67.039,25.146
		c1.57,1.551,1.585,4.082,0.03,5.656C262.065,47.636,261.033,48.034,260.002,48.034z"/>
	<path style="fill:#3A3847;" d="M252.006,64.033c-1.34,0-2.648-0.671-3.406-1.898c-6.211-10.046-21.467-14.194-21.624-14.233
		c-2.133-0.566-3.406-2.757-2.84-4.895c0.57-2.128,2.762-3.383,4.894-2.839c0.75,0.199,18.507,5.035,26.374,17.764
		c1.16,1.879,0.578,4.344-1.301,5.504C253.451,63.842,252.725,64.033,252.006,64.033z"/>
	<path style="fill:#3A3847;" d="M268.001,32.035c-0.937,0-1.875-0.329-2.641-0.996c-31.244-27.443-68.992-30.346-106.294-8.164
		l-1.059,0.625c-1.914,1.102-4.359,0.453-5.464-1.465c-1.105-1.91-0.449-4.359,1.465-5.464l0.968-0.57
		c40.529-24.1,81.597-20.886,115.665,9.03c1.656,1.458,1.828,3.984,0.359,5.645C270.22,31.574,269.11,32.035,268.001,32.035z"/>
	<path style="fill:#3A3847;" d="M395.993,360.011h-15.999c-2.211,0-4-1.788-4-3.999s1.789-4,4-4h15.999c2.212,0,4,1.789,4,4
		S398.205,360.011,395.993,360.011z"/>
	<path style="fill:#3A3847;" d="M444.225,352.012h-16.233c-2.211,0-4-1.789-4-4s1.789-4,4-4h16.233c2.219,0,4,1.789,4,4
		S446.443,352.012,444.225,352.012z"/>
	<path style="fill:#3A3847;" d="M256.002,448.005c-101.592,0-123.954-56.19-124.855-58.581c-0.778-2.063,0.262-4.359,2.32-5.149
		c2.051-0.772,4.367,0.25,5.16,2.313c0.208,0.531,21.682,53.418,117.376,53.418c96.119,0,117.165-52.872,117.367-53.411
		c0.781-2.07,3.079-3.132,5.156-2.327c2.07,0.781,3.109,3.086,2.328,5.156C379.955,391.814,357.59,448.005,256.002,448.005z"/>
	<path style="fill:#3A3847;" d="M483.988,480.004H28.016c-2.21,0-4-1.789-4-4s1.789-4,4-4h455.973c2.211,0,3.999,1.789,3.999,4
		S486.199,480.004,483.988,480.004z"/>
	<path style="fill:#3A3847;" d="M474.95,448.005H319.998c-2.211,0-3.999-1.788-3.999-3.999s1.788-4,3.999-4H474.95
		c2.21,0,3.999,1.789,3.999,4S477.16,448.005,474.95,448.005z"/>
	<path style="fill:#3A3847;" d="M192.006,448.005H37.054c-2.211,0-4-1.788-4-3.999s1.789-4,4-4h154.952c2.211,0,4,1.789,4,4
		S194.217,448.005,192.006,448.005z"/>
</g>
<g>
</g>
<g>
</g>
<g>
</g>
<g>
</g>
<g>
</g>
<g>
</g>
<g>
</g>
<g>
</g>
<g>
</g>
<g>
</g>
<g>
</g>
<g>
</g>
<g>
</g>
<g>
</g>
<g>
</g>
</svg>
