<svg id="Layer_3" enable-background="new 0 0 64 64" height="512" viewBox="0 0 64 64" width="512" xmlns="http://www.w3.org/2000/svg"><g><g><path d="m40 42h-16v-20.816c0-7.161 2.845-14.028 7.908-19.092l.092-.092.092.092c5.063 5.063 7.908 11.931 7.908 19.092z" fill="#c7e2fc"/></g><g><path d="m32 2-.092.092c-5.063 5.063-7.908 11.931-7.908 19.092v17.027c6.445-3.687 11-12.686 11-23.211 0-4.426-.808-8.58-2.22-12.186-.226-.243-.452-.487-.688-.723z" fill="#ebf7fe"/></g><g><path d="m26 42h12v4h-12z" fill="#c66b60"/></g><g><path d="m40 26 .278.208c4.94 3.705 8.182 9.24 8.998 15.36l.724 5.432-1.023-1.791c-1.841-3.221-5.267-5.209-8.977-5.209" fill="#f5b953"/></g><g><path d="m24 26-.278.208c-4.94 3.705-8.182 9.24-8.998 15.36l-.724 5.432 1.023-1.791c1.841-3.221 5.267-5.209 8.977-5.209" fill="#f5b953"/></g><g><circle cx="32" cy="25" fill="#f5b953" r="5"/></g><g><path d="m36 49 1.063 1.595c.611.916.937 1.993.937 3.094 0 1.48-.588 2.899-1.634 3.945l-4.366 4.366-4.366-4.366c-1.046-1.046-1.634-2.465-1.634-3.945 0-1.101.326-2.178.937-3.095l1.063-1.594" fill="#f5b953"/></g><g><path d="m38.388 12c-1.335-3.69-3.469-7.081-6.296-9.908l-.092-.092-.092.092c-2.827 2.827-4.961 6.218-6.296 9.908z" fill="#f5b953"/></g><g><path d="m26 11h12v2h-12z"/></g><g><path d="m40 43h-16c-.552 0-1-.448-1-1v-20.816c0-7.479 2.913-14.51 8.201-19.799l.092-.092c.391-.391 1.023-.391 1.414 0l.092.092c5.288 5.288 8.201 12.32 8.201 19.799v20.816c0 .552-.448 1-1 1zm-15-2h14v-19.816c0-6.649-2.479-12.917-7-17.749-4.521 4.832-7 11.1-7 17.749z"/></g><g><path d="m38 47h-12c-.552 0-1-.448-1-1v-4h2v3h10v-3h2v4c0 .552-.448 1-1 1z"/></g><g><path d="m50 48c-.351 0-.686-.186-.868-.504l-1.023-1.791c-1.659-2.902-4.766-4.705-8.109-4.705v-2c3.241 0 6.298 1.396 8.425 3.751l-.14-1.051c-.775-5.816-3.913-11.171-8.607-14.693l-.278-.207 1.2-1.6.277.208c5.122 3.841 8.544 9.683 9.39 16.028l.724 5.432c.063.474-.218.927-.671 1.08-.106.035-.214.052-.32.052z"/></g><g><path d="m14 48c-.106 0-.214-.017-.32-.053-.453-.153-.734-.605-.671-1.08l.724-5.432c.846-6.345 4.268-12.187 9.39-16.028l.277-.207 1.2 1.6-.277.208c-4.695 3.521-7.832 8.876-8.607 14.693l-.14 1.051c2.126-2.356 5.183-3.752 8.424-3.752v2c-3.343 0-6.45 1.803-8.109 4.706l-1.023 1.791c-.181.317-.517.503-.868.503z"/></g><g><path d="m32 31c-3.309 0-6-2.691-6-6s2.691-6 6-6 6 2.691 6 6-2.691 6-6 6zm0-10c-2.206 0-4 1.794-4 4s1.794 4 4 4 4-1.794 4-4-1.794-4-4-4z"/></g><g><path d="m32 63c-.256 0-.512-.098-.707-.293l-4.366-4.366c-1.243-1.242-1.927-2.895-1.927-4.652 0-1.303.382-2.565 1.105-3.649l1.063-1.595 1.664 1.109-1.063 1.595c-.503.755-.769 1.633-.769 2.54 0 1.223.476 2.373 1.341 3.238l3.659 3.659 3.659-3.659c.865-.865 1.341-2.015 1.341-3.238 0-.907-.266-1.785-.769-2.54l-1.063-1.595 1.664-1.109 1.063 1.595c.723 1.084 1.105 2.346 1.105 3.649 0 1.757-.684 3.41-1.927 4.652l-4.366 4.366c-.195.195-.451.293-.707.293z"/></g><g><path d="m31 46h2v5h-2z"/></g></g></svg>