<?xml version="1.0" encoding="utf-8"?>
<!-- Generator: Adobe Illustrator 23.0.4, SVG Export Plug-In . SVG Version: 6.00 Build 0)  -->
<svg version="1.1" id="Calque_1" xmlns="http://www.w3.org/2000/svg" xmlns:xlink="http://www.w3.org/1999/xlink" x="0px" y="0px"
	 viewBox="0 0 28.3 32" style="enable-background:new 0 0 28.3 32;" xml:space="preserve">
<style type="text/css">
	.st0{fill:#DF4949;}
</style>
<title>panier_hover</title>
<path class="st0" d="M26,7.9l0-0.1H20v-2C20,2.6,17.4,0,14.2,0C11,0,8.4,2.6,8.4,5.8v2H2.2L0,31.8L0,32h28.3L26,7.9z M14.2,1.8
	c2.2,0,4.1,1.8,4.1,4.1v2h-8.1v-2C10.1,3.6,12,1.8,14.2,1.8z M10.1,14.6V9.5h8.1v5.2H20V9.5h4.4l2,20.8H1.9l2-20.8h4.5v5.2H10.1z"/>
</svg>
