<?xml version="1.0" encoding="utf-8"?>
<!-- Generator: Adobe Illustrator 24.0.1, SVG Export Plug-In . SVG Version: 6.00 Build 0)  -->
<svg version="1.1" id="Layer_1" xmlns="http://www.w3.org/2000/svg" xmlns:xlink="http://www.w3.org/1999/xlink" x="0px" y="0px"
	 viewBox="0 0 512 512" style="enable-background:new 0 0 512 512;" xml:space="preserve">
<style type="text/css">
	.st0{fill:#DF4949;}
	.st1{fill:#009FD3;}
	.st2{fill:#FF9600;}
	.st3{fill:#000003;}
</style>
<g>
	<path class="st0" d="M256,501.3c-79.3-80-202.7-169.7-202.7-288c0-111.9,90.7-202.7,202.7-202.7c111.9,0,202.7,90.7,202.7,202.7
		C458.7,331.6,335.3,421.3,256,501.3z"/>
	<path class="st1" d="M256,341.3c70.5,0,128-57.5,128-128c0-70.5-57.5-128-128-128c-70.5,0-128,57.5-128,128
		C128,283.8,185.5,341.3,256,341.3z"/>
	<g>
		<path class="st2" d="M256,52.2c-32.8,0-61.4,20.1-71.8,55c-5.1,17.1,2.8,49.2,4.8,61.6c6.6,40.2,11.8,37.8,33.3,52.3
			c22.3,12.9,45.1,12.9,67.5,0c21.4-14.5,26.6-12.1,33.3-52.3c2-12.4,9.9-44.6,4.8-61.6C317.4,72.2,288.8,52.2,256,52.2z"/>
		<path class="st2" d="M313.2,202.8c26.5,13.2,47.7,35.4,59.8,62.5c-19.9,44.8-64.8,76-117,76c-52.2,0-97.1-31.2-117-76
			c12.1-27.1,33.3-49.3,59.8-62.5c4.9,7.5,11.8,10.4,23.5,18.4c22.3,12.9,45.1,12.9,67.5,0C301.4,213.2,308.3,210.3,313.2,202.8z"/>
	</g>
</g>
<g>
	<path class="st3" d="M362.7,490.7l-80.6,0c8.8-8.4,17.9-17,27.4-25.9c74.9-70.3,159.9-149.9,159.9-251.5
		c0-57-22.2-110.6-62.5-150.8C366.6,22.2,313,0,256,0S145.4,22.2,105.2,62.5c-40.3,40.3-62.5,93.9-62.5,150.8
		c0,101.6,84.9,181.2,159.9,251.5c9.5,8.9,18.6,17.4,27.4,25.9l-80.6,0c-5.9,0-10.7,4.8-10.7,10.7c0,5.9,4.8,10.7,10.7,10.7l106.6,0
		c0,0,0,0,0,0s0,0,0,0l106.6,0c5.9,0,10.7-4.8,10.7-10.7C373.3,495.4,368.6,490.7,362.7,490.7z M256,486.3
		c-12.3-12.1-25.3-24.3-38.9-37C145.3,381.9,64,305.7,64,213.3c0-51.3,20-99.5,56.2-135.8S204.7,21.3,256,21.3
		c51.3,0,99.5,20,135.8,56.2C428,113.8,448,162,448,213.3c0,92.3-81.3,168.6-153.1,235.9C281.3,462,268.3,474.2,256,486.3z"/>
	<path class="st3" d="M354.3,150.2c2,3.2,5.5,4.9,9,4.9c2,0,4-0.5,5.7-1.7c5-3.2,6.4-9.8,3.2-14.7c-0.8-1.2-1.6-2.5-2.4-3.7
		c-3.3-4.9-10-6.1-14.8-2.8c-4.9,3.3-6.1,10-2.8,14.8C353,148.2,353.7,149.2,354.3,150.2z"/>
	<path class="st3" d="M382.7,269.7c0.5-1.1,0.8-2.3,0.9-3.5c6.9-16.8,10.5-34.6,10.5-52.8c0-14.6-2.3-29-6.8-42.8
		c-1.8-5.6-7.8-8.7-13.4-6.8c-5.6,1.8-8.7,7.8-6.8,13.4c3.8,11.7,5.7,23.9,5.7,36.2c0,8.5-0.9,16.9-2.7,25.1
		c-11.3-16.2-25.9-30-42.9-40.2c2.4-6.8,4.5-15.6,6.5-27.7c0.3-1.9,0.8-4.5,1.4-7.5c3.2-16.8,8.1-42.3,3.1-59
		c-11.4-38-43.6-62.6-82-62.6c-37.1,0-68.4,22.9-80.7,58.7c-21.5,15.2-38.2,36.2-48.2,60.6c-2.2,5.5,0.4,11.7,5.8,13.9
		c1.3,0.5,2.7,0.8,4,0.8c4.2,0,8.2-2.5,9.9-6.6c5.9-14.4,14.5-27.4,25.4-38.3c0.9,11.5,3.1,23.3,4.9,32.5c0.6,3,1.1,5.5,1.4,7.5
		c2,12.2,4,21,6.5,27.7c-24.5,14.6-44,36.6-55.7,62.7c-1.2,2.8-1.2,5.9,0,8.7c22.3,50,72,82.3,126.7,82.3c0,0,0,0,0,0
		C310.7,352,360.5,319.7,382.7,269.7z M194.4,110.2c8.7-29.2,32.3-47.4,61.6-47.4c29.2,0,52.8,18.2,61.6,47.4
		c3.5,11.7-1.1,35.9-3.6,48.9c-0.6,3.1-1.1,5.8-1.5,8c-4.9,30-7.3,31.5-20.5,39.9c-2.3,1.5-4.9,3.1-7.9,5.1
		c-9.4,5.4-18.8,8.1-28.1,8.1c-9.3,0-18.7-2.7-28.1-8.1c-2.9-2-5.5-3.6-7.9-5.1c-13.2-8.4-15.6-9.9-20.5-39.9
		c-0.4-2.2-0.9-4.9-1.5-8c-0.8-4.1-1.8-9.4-2.7-15c11.8-1.8,30.5-5.4,45.3-11.6l2.4,5.7c0.4,1,0.7,1.8,1,2.6
		c1.5,3.7,3.4,8.8,9.3,10.7c1.4,0.5,2.8,0.7,4.1,0.7c2.9,0,5.8-1,9.2-2.1c0.9-0.3,1.8-0.6,3-1c8.1-2.7,19.6-7.8,28.7-17.2
		c4.1-4.2,4-11-0.2-15.1c-4.2-4.1-11-4-15.1,0.2c-6.1,6.3-14.3,9.9-20.1,11.8c-0.2,0.1-0.4,0.1-0.6,0.2l-6.4-15.4
		c-1.2-2.9-3.7-5.2-6.7-6.1c-3-0.9-6.3-0.5-9,1.3c-10.7,7-32.4,11.6-47.1,14C193.1,118,193.4,113.6,194.4,110.2z M256,330.7
		c-44.7,0-85.5-25.5-105.2-65.3c10.1-20.4,26.1-37.5,45.7-49.1c3.4,3,7.3,5.7,12.2,8.7c2.3,1.5,4.9,3.1,7.7,5l0.7,0.4
		c12.8,7.4,25.9,11.1,39.1,11.1c0,0,0,0,0,0c13.2,0,26.3-3.7,39.1-11.1l0.7-0.4c2.8-1.9,5.4-3.5,7.7-5c4.8-3.1,8.8-5.7,12.1-8.7
		c19.6,11.6,35.5,28.7,45.7,49.1C341.5,305.2,300.7,330.7,256,330.7z"/>
	<path class="st3" d="M138.6,201.8c0.1-1.3,0.3-2.6,0.4-3.8c0.8-5.8-3.3-11.2-9.2-12c-5.8-0.8-11.2,3.3-12,9.2
		c-0.2,1.4-0.4,2.9-0.5,4.5c-0.6,5.9,3.7,11.1,9.5,11.7c0.4,0,0.7,0.1,1.1,0.1C133.4,211.4,138.1,207.3,138.6,201.8z"/>
</g>
</svg>
