<?xml version="1.0" encoding="utf-8"?>
<!-- Generator: Adobe Illustrator 24.0.1, SVG Export Plug-In . SVG Version: 6.00 Build 0)  -->
<svg version="1.1" id="Capa_1" xmlns="http://www.w3.org/2000/svg" xmlns:xlink="http://www.w3.org/1999/xlink" x="0px" y="0px"
	 viewBox="0 0 512 512" style="enable-background:new 0 0 512 512;" xml:space="preserve">
<style type="text/css">
	.st0{fill:#3F3D56;}
</style>
<g>
	<path class="st0" d="M256,512c-3.1,0-6-1.2-8.2-3.4s-3.4-5.1-3.4-8.2V11.6C244.4,5.2,249.6,0,256,0s11.6,5.2,11.6,11.6v488.7
		c0,3.1-1.2,6-3.4,8.2C262,510.8,259.1,512,256,512z"/>
	<path class="st0" d="M500.4,267.6H11.6C5.2,267.6,0,262.4,0,256c0-6.4,5.2-11.6,11.6-11.6h488.7c6.4,0,11.6,5.2,11.6,11.6
		C512,262.4,506.8,267.6,500.4,267.6z"/>
</g>
</svg>
