<?xml version="1.0" encoding="utf-8"?>
<!-- Generator: Adobe Illustrator 23.0.4, SVG Export Plug-In . SVG Version: 6.00 Build 0)  -->
<svg version="1.1" id="Calque_1" xmlns="http://www.w3.org/2000/svg" xmlns:xlink="http://www.w3.org/1999/xlink" x="0px" y="0px"
	 viewBox="0 0 22.9 26.5" style="enable-background:new 0 0 22.9 26.5;" xml:space="preserve">
<style type="text/css">
	.st0{fill:#DF4949;}
</style>
<title>powerOff_hover</title>
<path class="st0" d="M11.4,13.2c-0.5,0-0.9-0.4-0.9-0.9V0.9C10.6,0.4,11,0,11.4,0c0.5,0,0.9,0.4,0.9,0.9v11.5
	C12.3,12.8,11.9,13.2,11.4,13.2L11.4,13.2z"/>
<path class="st0" d="M11.4,26.5C5.1,26.5,0,21.4,0,15.1c0-5,3.2-9.4,8-10.9c0.4-0.1,0.9,0.1,1.1,0.5c0,0,0,0,0,0
	C9.2,5.2,9,5.7,8.5,5.9c-5.1,1.6-8,7-6.4,12.2s7,8,12.2,6.4s8-7,6.4-12.2C19.8,9.3,17.6,7,14.7,6c-0.4-0.2-0.7-0.7-0.5-1.1
	c0.2-0.4,0.7-0.7,1.1-0.5c5.9,2.2,9,8.7,6.8,14.7C20.5,23.6,16.2,26.6,11.4,26.5L11.4,26.5z"/>
</svg>
