<?xml version="1.0" encoding="utf-8"?>
<!-- Generator: Adobe Illustrator 23.0.4, SVG Export Plug-In . SVG Version: 6.00 Build 0)  -->
<svg version="1.1" id="Calque_1" xmlns="http://www.w3.org/2000/svg" xmlns:xlink="http://www.w3.org/1999/xlink" x="0px" y="0px"
	 viewBox="0 0 31.1 22.9" style="enable-background:new 0 0 31.1 22.9;" xml:space="preserve">
<style type="text/css">
	.st0{fill:#3F3D56;}
	.st1{fill:#F76464;}
</style>
<title>profil</title>
<path class="st0" d="M11.4,0C5.1,0,0,5.1,0,11.4s5.1,11.4,11.4,11.4s11.4-5.1,11.4-11.4l0,0C22.8,5.1,17.7,0,11.4,0z M11.4,1.5
	c5.5,0,9.9,4.4,9.9,9.9c0,1.7-0.4,3.4-1.3,4.9l-5-2.6c-0.5-0.2-0.8-0.7-0.9-1.2c1.2-1,1.8-2.5,1.8-4.1c0-2.8-1.9-5-4.2-5
	s-4.2,2.2-4.2,5c0,1.6,0.6,3.1,1.8,4.1c0,0.6-0.4,1.1-0.9,1.3L3,16.5C0.2,11.9,1.6,5.8,6.3,3C7.9,2,9.6,1.5,11.4,1.5L11.4,1.5z
	 M11.7,11.9c-1.5,0-2.7-1.6-2.7-3.5S10.2,5,11.6,5s2.7,1.6,2.7,3.5S13.1,11.9,11.7,11.9z M11.7,13.5c0.3,0,0.7-0.1,1-0.2
	c0.1,0.5,0.4,0.9,0.8,1.3l-1.6,1.5c-0.1,0.1-0.3,0.1-0.4,0c0,0,0,0,0,0l-1.6-1.5c0.4-0.3,0.6-0.8,0.8-1.3
	C11,13.4,11.3,13.5,11.7,13.5z M11.4,21.3c-2.9,0-5.7-1.3-7.5-3.5l4.6-2.4l1.9,1.8c0.3,0.3,0.8,0.5,1.3,0.5c0.5,0,0.9-0.2,1.3-0.5
	l1.9-1.8l4.3,2.2C17.2,20,14.4,21.3,11.4,21.3z"/>
<path class="st1" d="M27.9,13.2l-2.3-2.7c-0.3-0.4,0-0.9,0.4-0.9h4.5c0.5,0,0.7,0.5,0.4,0.9l-2.3,2.7C28.5,13.4,28.1,13.4,27.9,13.2
	z"/>
</svg>
