<svg id="Capa_1" enable-background="new 0 0 512 512" height="512" viewBox="0 0 512 512" width="512" xmlns="http://www.w3.org/2000/svg"><path id="XMLID_968_" d="m10 64h492v192h-492z" fill="#b0e7f8"/><path id="XMLID_967_" d="m220 256.127h72v245.874h-72z" fill="#ffd89e"/><path id="XMLID_966_" d="m220 10h72v54h-72z" fill="#ffd89e"/><path id="XMLID_1453_" d="m292 502s10-103.846 115.385-133.846c-37.874 29.271-33.724 83.772-33.724 83.772s23.339-40.335 77.57-49.157c-15.475 24.654-15.075 49.157-15.075 49.157s26.681-27.42 65.844-27.618c-25.385 30-28.347 77.692-28.347 77.692z" fill="#d8ec84"/><path id="XMLID_1452_" d="m220 502s-10-103.846-115.385-133.846c33.899 34.879 34.524 83.772 34.524 83.772s-23.754-31.464-78.37-49.157c12.976 18.095 10.875 49.157 10.875 49.157s-23.73-31.062-61.644-27.618c24.581 33.529 28.347 77.692 28.347 77.692z" fill="#d8ec84"/><path id="XMLID_154_" d="m282 120v80c0 5.523 4.478 10 10 10h32c5.522 0 10-4.477 10-10s-4.478-10-10-10h-22v-70c0-5.523-4.478-10-10-10s-10 4.477-10 10z"/><path id="XMLID_180_" d="m364 210h28c5.522 0 10-4.477 10-10s-4.478-10-10-10h-18v-20h18c5.522 0 10-4.477 10-10s-4.478-10-10-10h-18v-20h18c5.522 0 10-4.477 10-10s-4.478-10-10-10h-28c-5.522 0-10 4.477-10 10v80c0 5.523 4.478 10 10 10z"/><path id="XMLID_183_" d="m235.511 116.909c-1.339-4.12-5.179-6.909-9.511-6.909s-8.172 2.789-9.511 6.909l-26 80c-1.707 5.252 1.167 10.894 6.42 12.601 5.253 1.708 10.894-1.167 12.602-6.419l2.088-6.424h28.803l2.088 6.424c1.374 4.226 5.294 6.912 9.509 6.912 1.024 0 2.066-.159 3.093-.493 5.253-1.707 8.127-7.349 6.42-12.601zm-17.413 59.758 7.902-24.313 7.902 24.313z"/><path id="XMLID_184_" d="m140 130h20c5.522 0 10-4.477 10-10s-4.478-10-10-10h-20c-16.542 0-30 13.458-30 30s13.458 30 30 30c5.514 0 10 4.486 10 10s-4.486 10-10 10h-20c-5.522 0-10 4.477-10 10s4.478 10 10 10h20c16.542 0 30-13.458 30-30 0-15.721-12.158-28.647-27.564-29.893-.455-.063-.915-.107-1.387-.107h-1.049c-5.514 0-10-4.486-10-10s4.486-10 10-10z"/><path id="XMLID_187_" d="m512 256v-192c0-5.523-4.478-10-10-10h-200v-44c0-5.523-4.478-10-10-10h-72c-5.522 0-10 4.477-10 10v44h-200c-5.522 0-10 4.477-10 10v192c0 5.523 4.478 10 10 10h200v174.414c-15.419-28.669-45.635-65.649-102.646-81.878-4.359-1.243-9.001.602-11.323 4.489s-1.742 8.851 1.414 12.098c15.051 15.486 22.963 34.262 27.118 49.387-13.559-10.37-33.524-22.447-60.711-31.254-4.11-1.331-8.608.126-11.156 3.614s-2.569 8.217-.053 11.727c3.794 5.29 6.084 12.458 7.424 19.529-12.122-8.193-29.489-15.728-50.971-13.777-3.591.326-6.729 2.56-8.211 5.847s-1.081 7.117 1.051 10.025c22.551 30.761 26.413 72.226 26.448 72.629.441 5.175 4.771 9.15 9.964 9.15h435.305c5.282 0 9.653-4.108 9.98-9.38.028-.444 3.023-44.698 26.001-71.853 2.521-2.979 3.078-7.153 1.428-10.69-1.645-3.521-5.179-5.77-9.062-5.77-.017 0-.034 0-.051 0-21.306.108-39.158 7.373-51.876 14.806 2.007-6.453 5.042-13.724 9.627-21.028 2.089-3.328 2.035-7.57-.137-10.845s-6.061-4.972-9.938-4.342c-28.874 4.697-49.657 17.567-63.404 29.574 3.381-15.386 10.876-33.729 27.279-46.407 3.793-2.931 4.972-8.141 2.812-12.42-2.161-4.279-7.052-6.426-11.665-5.11-57.011 16.229-87.227 53.209-102.646 81.878v-16.293c0-5.523-4.478-10-10-10s-10 4.477-10 10v67.879h-52v-225.872h52v67.994c0 5.523 4.478 10 10 10s10-4.477 10-10v-68.121h200c5.521 0 9.999-4.477 9.999-10zm-192.982 194.993c13.567-25.719 32.558-45.476 56.683-59.041-14.179 28.809-12.144 58.981-12.01 60.733.332 4.371 3.473 8.016 7.747 8.99 4.274.978 8.685-.946 10.879-4.741.179-.309 15.661-26.419 50.484-39.094-6.792 18.566-6.658 33.417-6.645 34.249.066 4.028 2.554 7.612 6.294 9.109 3.738 1.496 8.023.592 10.851-2.278.189-.191 15.154-15.139 38.162-21.645-10.709 20.46-15.068 42.534-16.771 54.724h-160.805c2.155-9.665 6.538-24.715 15.131-41.006zm-271.915 41.007c-1.978-12.142-6.891-34.521-18.333-56.346 21.481 5.34 34.781 22.153 34.929 22.342 2.528 3.31 6.843 4.703 10.829 3.505 3.987-1.201 6.813-4.746 7.095-8.901.063-.939.999-15.997-2.733-32.093 35.768 16.336 52.099 37.222 52.269 37.443 2.604 3.449 7.131 4.837 11.219 3.436 4.09-1.399 6.817-5.268 6.762-9.589-.021-1.636-.636-31.389-16.702-61.941 25.749 13.479 45.922 33.722 60.191 60.466 8.774 16.445 13.262 31.833 15.465 41.676h-160.991zm182.897-472h52v34h-52zm262 226h-472v-172h472z"/><path id="XMLID_191_" d="m292.06 369.12c-2.64 0-5.21 1.07-7.069 2.93-1.86 1.86-2.931 4.44-2.931 7.07s1.07 5.21 2.931 7.07c1.859 1.86 4.439 2.93 7.069 2.93s5.21-1.07 7.07-2.93 2.93-4.44 2.93-7.07-1.069-5.21-2.93-7.07-4.441-2.93-7.07-2.93z"/></svg>