<?xml version="1.0" encoding="utf-8"?>
<!-- Generator: Adobe Illustrator 23.0.4, SVG Export Plug-In . SVG Version: 6.00 Build 0)  -->
<svg version="1.1" id="Calque_1" xmlns="http://www.w3.org/2000/svg" xmlns:xlink="http://www.w3.org/1999/xlink" x="0px" y="0px"
	 viewBox="0 0 28.3 27" style="enable-background:new 0 0 28.3 27;" xml:space="preserve">
<style type="text/css">
	.st0{fill:#3F3D56;}
</style>
<title>search</title>
<path class="st0" d="M28,25.5l-8.7-7.9c3.7-4.6,3-11.4-1.6-15.2C13.1-1.3,6.2-0.6,2.4,4c-1.8,2.2-2.7,5.1-2.4,8s1.7,5.5,3.9,7.3
	c4.2,3.4,10.2,3.2,14.2-0.4l8.7,7.9c0.2,0.1,0.4,0.2,0.6,0.2c0.2,0,0.5-0.1,0.6-0.3C28.4,26.3,28.4,25.8,28,25.5z M19.9,11
	c0,5-4.1,9.1-9.1,9.1c-5,0-9.1-4.1-9.1-9.1s4.1-9.1,9.1-9.1S19.9,5.9,19.9,11z"/>
</svg>
