<?xml version="1.0" encoding="utf-8"?>
<!-- Generator: Adobe Illustrator 24.0.1, SVG Export Plug-In . SVG Version: 6.00 Build 0)  -->
<svg version="1.1" id="fc22ab48-8f9a-4d8d-921d-dedaab023bdf"
	 xmlns="http://www.w3.org/2000/svg" xmlns:xlink="http://www.w3.org/1999/xlink" x="0px" y="0px" viewBox="0 0 976.2 767"
	 style="enable-background:new 0 0 976.2 767;" xml:space="preserve">
<style type="text/css">
	.st0{fill:#FF6584;}
	.st1{fill:#2F2E41;}
	.st2{fill:#D0CDE1;}
	.st3{fill:#3F3D56;}
	.st4{fill:#FFB8B8;}
	.st5{fill:#F54E00;}
	.st6{opacity:0.1;enable-background:new    ;}
</style>
<title>gift_box</title>
<g>
	<rect x="163.6" y="356.8" transform="matrix(0.5 -0.866 0.866 0.5 -235.454 350.9587)" class="st0" width="45.3" height="45.3"/>
	<path class="st1" d="M136.5,394.8l23.6-40.9l40.9,23.6l-23.6,40.9L136.5,394.8z M160.9,356.6l-21.6,37.5l37.5,21.6l21.6-37.5
		L160.9,356.6z"/>
	<circle class="st2" cx="214.1" cy="509.5" r="19"/>
	<path class="st1" d="M180.1,509.5c0-11,9-20,20-20s20,9,20,20c0,11-9,20-20,20C189.1,529.5,180.1,520.5,180.1,509.5z M182.1,509.5
		c0,9.9,8.1,18,18,18s18-8.1,18-18c0-9.9-8.1-18-18-18C190.2,491.5,182.1,499.6,182.1,509.5z"/>
	<circle class="st2" cx="713.2" cy="394.8" r="106"/>
	<path class="st3" d="M750,548.1L750,548.1L750,548.1c-0.8,2.7-2.5,5.1-4.9,6.6l-29.2,18.1v125.5h-6v-215l-41.6-25.8
		c-3.1-1.9-5.5-4.6-7.1-7.9c3.6-0.1,7.2,0.9,10.2,2.8l38.5,23.8v-69.1c0-8.2,1-16.4,3-24.3c2,7.9,3,16.1,3,24.3v42.4l26.1-16.2
		c2.4-1.5,5.3-2,8.1-1.5l0,0l0,0c-0.8,2.7-2.5,5.1-4.9,6.6l-29.2,18.1v109.2l26.1-16.2C744.3,548.1,747.2,547.5,750,548.1z"/>
	<circle class="st2" cx="870.2" cy="403.8" r="106"/>
	<path class="st3" d="M833.5,557.1L833.5,557.1L833.5,557.1c0.8,2.7,2.5,5.1,4.9,6.6l29.2,18.1v125.5h6v-215l41.6-25.8
		c3.1-1.9,5.5-4.6,7.1-7.9c-3.6-0.1-7.2,0.9-10.2,2.8l-38.5,23.8v-69.1c0-8.2-1-16.4-3-24.3c-2,7.9-3,16.1-3,24.3v42.4l-26.1-16.2
		c-2.4-1.5-5.3-2-8.1-1.5h0h0c0.8,2.7,2.5,5.1,4.9,6.6l29.2,18.1v109.2l-26.1-16.2C839.2,557.1,836.3,556.5,833.5,557.1z"/>
	<ellipse class="st3" cx="590.2" cy="708.6" rx="299" ry="14.6"/>
	<ellipse class="st3" cx="321.2" cy="731.5" rx="299" ry="14.6"/>
	<ellipse class="st3" cx="571.2" cy="752.4" rx="299" ry="14.6"/>
	<polygon class="st4" points="492.2,687 489.2,716 514.2,716 508.2,687 	"/>
	<polygon class="st4" points="580.2,677 577.2,706 602.2,706 596.2,677 	"/>
	<path class="st4" d="M540.7,418.5l-6,22l-29,64c0,0-23,29-8,38c15,9,19-31,19-31s19-32,27-43s16-46,16-46L540.7,418.5z"/>
	<circle class="st4" cx="518.2" cy="305" r="27"/>
	<path class="st4" d="M533.7,312.5c-3,10,18,33,18,33l-27,7l-13-29L533.7,312.5z"/>
	<path class="st1" d="M540.7,447.5l7,107c0,0,58,123,51,125s-38,18-62,19s-30-127-30-127s8,104,13,122s-22,4-60,3s-4-148,0-198
		s28-76,28-76s2-23,3-37s12-17,12-17s4-5,12-16c8-11,40-12,40-12C591.7,357.5,540.7,447.5,540.7,447.5z"/>
	<polygon class="st1" points="537.7,435.5 559.7,435.5 564.7,370.5 	"/>
	<path class="st4" d="M503.7,416.5l-6,22l-29,64c0,0-23,29-8,38s19-31,19-31s19-32,27-43c8-11,16-46,16-46L503.7,416.5z"/>
	<path class="st1" d="M495.7,709.5c0,0-3-6-4.8-9.7s-11.2,6.7-11.2,6.7h-13c0,0-10-3-17,9s50,15,63,15c13,0,4-20,2-24s-9,4-9,4
		C500.7,714.5,495.7,709.5,495.7,709.5z"/>
	<path class="st1" d="M588.3,697.3c0,0-5.7-3.5-9.2-5.7s-6,11.6-6,11.6L562,710c0,0-10.1,2.7-9.7,16.6s50.4-13.5,61.5-20.4
		c11.1-6.8-7.1-19.1-10.9-21.5c-3.8-2.3-5.5,8.1-5.5,8.1C595.1,698.9,588.3,697.3,588.3,697.3z"/>
	<path class="st1" d="M510.8,357.9c0,0-18.1,69.6-11.1,66.6s23,7,23,7s5-21,12-46s0-39,0-39C521.7,334.5,510.8,357.9,510.8,357.9z"
		/>
	<path class="st1" d="M510,305.8l4-5.7c3.6,26.4-19,44.9-19,44.9l54.6-14l0.3-7.2l3.8,5.3l6.5-2.7l1.3-4.6l4.5,1.6l-13.7-32.5
		c-13.4-31-38.5-22.3-38.5-22.3c-37.9-5.8-28.2,28-28.2,28L510,305.8z"/>
	<rect x="86.2" y="543.6" class="st5" width="200" height="187"/>
	<rect x="165.2" y="538.5" class="st3" width="42" height="198.1"/>
	<circle class="st2" cx="793.2" cy="182.5" r="182.5"/>
	<path class="st3" d="M730,446.4L730,446.4L730,446.4c1.3,4.7,4.4,8.8,8.5,11.3l50.3,31.2v216h10.3V334.9l71.7-44.4
		c5.3-3.3,9.5-8,12.2-13.6c-6.2-0.1-12.3,1.6-17.6,4.9l-66.2,41v-119c0-14.1-1.7-28.2-5.2-41.8c-3.4,13.7-5.2,27.7-5.2,41.8v72.9
		l-44.9-27.8c-4.2-2.6-9.1-3.5-13.9-2.6h0l0,0c1.3,4.7,4.4,8.8,8.5,11.3l50.3,31.2v188L743.9,449C739.7,446.4,734.8,445.5,730,446.4
		z"/>
	<path class="st3" d="M794.5,753.5h50c0-11.6-4.4-21-9.9-21c-1.2,0-2.3,0.4-3.2,1.2c-2.8-7.4-7-12.2-11.9-12.2
		c-4.8,0-9.1,4.8-11.9,12.2c-0.9-0.7-2.1-1.1-3.2-1.2C799,732.5,794.5,741.9,794.5,753.5z"/>
	<path class="st3" d="M688.5,700.5h50c0-11.6-4.4-21-9.9-21c-1.2,0-2.3,0.4-3.2,1.2c-2.8-7.4-7-12.2-11.9-12.2
		c-4.8,0-9.1,4.8-11.9,12.2c-0.9-0.7-2.1-1.1-3.2-1.2C693,679.5,688.5,688.9,688.5,700.5z"/>
	<path class="st3" d="M813.5,714.5h50c0-11.6-4.4-21-9.9-21c-1.2,0-2.3,0.4-3.2,1.2c-2.8-7.4-7-12.2-11.9-12.2
		c-4.8,0-9.1,4.8-11.9,12.2c-0.9-0.7-2.1-1.1-3.2-1.2C818,693.5,813.5,702.9,813.5,714.5z"/>
	<path class="st3" d="M66.4,492.8c0,0,23.8,12.9,24.9,30.5c1.1,17.6-21,33.3-21,33.3s-23.8-12.9-24.9-30.5
		C44.3,508.5,66.4,492.8,66.4,492.8z"/>
	<path class="st3" d="M11,560.1c0,0,13-23.8,30.6-24.8s33.3,21.1,33.3,21.1s-13,23.8-30.6,24.8S11,560.1,11,560.1z"/>
	<polygon class="st6" points="101.7,543.6 151.2,543.6 86.2,629.3 86.2,564 	"/>
	
		<rect x="-31.2" y="549.9" transform="matrix(0.6039 -0.7971 0.7971 0.6039 -419.4882 296.7299)" class="st5" width="240" height="41"/>
	
		<rect x="67.9" y="545.6" transform="matrix(0.6039 -0.7971 0.7971 0.6039 -416.6163 295.915)" class="st3" width="43" height="43"/>
	
		<rect x="222.9" y="411.5" transform="matrix(0.9659 -0.2588 0.2588 0.9659 -103.9934 78.3516)" class="st2" width="45.3" height="45.3"/>
	<path class="st1" d="M235.9,422.7l45.7-12.2l12.2,45.7l-45.7,12.2L235.9,422.7z M280.1,412.9l-41.8,11.2l11.2,41.8l41.8-11.2
		L280.1,412.9z"/>
</g>
</svg>
